<svg id="Camada_1" data-name="Camada 1" xmlns="http://www.w3.org/2000/svg" width="421.03" height="361.85" viewBox="0 0 421.03 361.85"><defs><style>.cls-1,.cls-3,.cls-5,.cls-6,.cls-7{fill:#fbe02b;}.cls-1,.cls-10,.cls-11,.cls-12,.cls-14,.cls-15,.cls-17,.cls-3,.cls-5,.cls-6,.cls-7,.cls-9{fill-rule:evenodd;}.cls-16,.cls-18,.cls-2,.cls-4,.cls-8{fill:none;}.cls-10,.cls-13,.cls-14,.cls-16,.cls-17,.cls-18,.cls-2,.cls-3,.cls-4,.cls-5,.cls-6,.cls-7,.cls-8,.cls-9{stroke:#231f20;stroke-miterlimit:2.61;}.cls-2,.cls-3{stroke-width:1.16px;}.cls-4{stroke-width:0.39px;}.cls-5{stroke-width:1.24px;}.cls-6,.cls-8{stroke-width:0.19px;}.cls-7{stroke-width:1.19px;}.cls-9{fill:#b93039;stroke-width:2.03px;}.cls-10,.cls-12{fill:#fff;}.cls-10{stroke-width:1.17px;}.cls-11{fill:#0077ab;}.cls-13{fill:#f6cf32;}.cls-14{fill:#f7dac6;}.cls-14,.cls-16,.cls-17{stroke-width:0.49px;}.cls-15,.cls-17,.cls-19{fill:#231f20;}.cls-18{stroke-width:0.36px;}</style></defs><title>Logo_PFBB_black</title><path class="cls-1" d="M283.79,182.92a2.2,2.2,0,0,0,3,.22,2.75,2.75,0,0,1-2.8,1.33c-6.95-2.53-21.64-4.05-42.86-5.84V178a47.25,47.25,0,0,0,19.91-7.47l12.69,1.26,10,11.15Zm-98.11-19.87,15.68,1.55a47.88,47.88,0,0,0,23.07,12.65c-15-1.23-32.25-2.67-51.61-4.63-.95-.1-4-4.74-5.24-7.3l4.15,5.5a2.17,2.17,0,0,0,3.06.43l10.89-8.2Z" transform="translate(-16.26 -14.43)"/><path class="cls-2" d="M283.79,182.92a2.2,2.2,0,0,0,3,.22,2.75,2.75,0,0,1-2.8,1.33c-6.95-2.53-21.64-4.05-42.86-5.84V178a47.25,47.25,0,0,0,19.91-7.47l12.69,1.26,10,11.15m-98.11-19.87,15.68,1.55a47.88,47.88,0,0,0,23.07,12.65c-15-1.23-32.25-2.67-51.61-4.63-.95-.1-4-4.74-5.24-7.3l4.15,5.5a2.17,2.17,0,0,0,3.06.43l10.89-8.2Z" transform="translate(-16.26 -14.43)"/><path class="cls-3" d="M282.13,138.91l18.1-5.1,12.9,4.19a2.17,2.17,0,0,0,2.75-1.4l1.56-4.77-1,4.55a3.18,3.18,0,0,1-1.93,3l-36.68,12.13a49.4,49.4,0,0,0,4.29-12.61Z" transform="translate(-16.26 -14.43)"/><path class="cls-1" d="M311.78,86.91l.12.29.05.15-.17-.44ZM283.07,94.6l17.94-6,10.68,3.88c1,.38,1.72.15,1.85-.5l.64,1.88a2.18,2.18,0,0,1-1.35,2.78l-29.76,10v-12Z" transform="translate(-16.26 -14.43)"/><path class="cls-2" d="M311.78,86.91l.12.29.05.15-.17-.44M283.07,94.6l17.94-6,10.68,3.88c1,.38,1.72.15,1.85-.5l.64,1.88a2.18,2.18,0,0,1-1.35,2.78l-29.76,10v-12Z" transform="translate(-16.26 -14.43)"/><path class="cls-3" d="M165.89,73.52l.34-.29a2.2,2.2,0,0,0,.71,2.68l19.7,14.31v7.47l-3.64,2c-8.72-10.15-17.66-21.56-17.38-23.13a2.18,2.18,0,0,1,.27-3.08Z" transform="translate(-16.26 -14.43)"/><path class="cls-3" d="M152.87,125.84l.08-.44c.12,1,1.21,1.26,2.51.53l10-5.6c7.21,1.68,14.24,3.25,21.2,4.64v4.26a52.64,52.64,0,0,0,.29,5.51l-32.33-6.33a2.19,2.19,0,0,1-1.73-2.57Z" transform="translate(-16.26 -14.43)"/><path class="cls-1" d="M163.26,119a71.85,71.85,0,1,0,71.85-71.84A71.85,71.85,0,0,0,163.26,119ZM154,119A81.07,81.07,0,1,1,235.11,200,81.07,81.07,0,0,1,154,119Z" transform="translate(-16.26 -14.43)"/><path class="cls-2" d="M163.26,119a71.85,71.85,0,1,0,71.85-71.84A71.85,71.85,0,0,0,163.26,119M154,119A81.07,81.07,0,1,1,235.11,200,81.07,81.07,0,0,1,154,119Z" transform="translate(-16.26 -14.43)"/><path class="cls-4" d="M235.11,40.11A78.88,78.88,0,1,1,156.23,119a78.87,78.87,0,0,1,78.88-78.87Zm0,4.84a74,74,0,1,1-74,74,74,74,0,0,1,74-74Z" transform="translate(-16.26 -14.43)"/><path class="cls-3" d="M194.61,156.32l-19.82,14.93a2.17,2.17,0,0,1-3.06-.43l-4.22-5.59a2.19,2.19,0,0,1,.43-3.07l21.55-16.23a49,49,0,0,0,5.12,10.39Z" transform="translate(-16.26 -14.43)"/><path class="cls-5" d="M283.07,70.9l23.4,8.49a7.06,7.06,0,0,1,3.69,3.48l3.21,8c.56,1.39-.2,2.08-1.68,1.54L283.07,82.07V70.9Z" transform="translate(-16.26 -14.43)"/><path class="cls-6" d="M283.07,72.25,307,81a5.84,5.84,0,0,1,3,3.44l2.23,5.12c.55,1.39.33,2-1.16,1.49L283.07,80.81V72.25Z" transform="translate(-16.26 -14.43)"/><path class="cls-3" d="M283.07,116.27l33.58,10.91a2.2,2.2,0,0,1,1.4,2.76l-2.17,6.66a2.17,2.17,0,0,1-2.75,1.4l-30.06-9.76v-12Z" transform="translate(-16.26 -14.43)"/><path class="cls-6" d="M283.07,117.45l33.2,10.87c1.15.37,1.15,1.56.77,2.7l-1.42,4.39c-.38,1.15-1,1.83-2.13,1.45l-30.42-10v-9.46Z" transform="translate(-16.26 -14.43)"/><path class="cls-3" d="M275.12,156.28l17.13,19a2.18,2.18,0,0,1-.16,3.09l-5.21,4.69a2.19,2.19,0,0,1-3.09-.16l-16-17.78a49.21,49.21,0,0,0,7.33-8.86Z" transform="translate(-16.26 -14.43)"/><path class="cls-6" d="M274.51,157.21l16.85,18.89c.81.9.29,1.92-.61,2.73l-3.42,3.08c-.9.81-1.84,1.1-2.65.2l-16-17.82a49.13,49.13,0,0,0,5.85-7.08Z" transform="translate(-16.26 -14.43)"/><path class="cls-7" d="M186.64,108.44l-31.18,17.49c-1.35.76-2.47.46-2.52-.65l-.24-6.48a4.42,4.42,0,0,1,2.36-3.39l31.58-17.72v10.75Z" transform="translate(-16.26 -14.43)"/><path class="cls-6" d="M186.64,106.64,155.4,124.42c-1.34.76-1.89,1-1.94-.16l-.33-4.35a3.65,3.65,0,0,1,2-3.19L186.64,99v7.61Z" transform="translate(-16.26 -14.43)"/><path class="cls-3" d="M186.64,90.22l-19.7-14.31a2.19,2.19,0,0,1-.49-3.06l4.12-5.67a2.19,2.19,0,0,1,3.06-.48l13,9.45V90.22Z" transform="translate(-16.26 -14.43)"/><path class="cls-6" d="M186.64,88.68l-19-13.74a1.93,1.93,0,0,1-.21-2.86l2.71-3.73a1.92,1.92,0,0,1,2.78-.68l13.71,9.92V88.68Z" transform="translate(-16.26 -14.43)"/><path class="cls-1" d="M241.15,178v20.53A2.19,2.19,0,0,1,239,200.7h-7a2.19,2.19,0,0,1-2.19-2.19V178.13a47.47,47.47,0,0,0,5.08.27,46.73,46.73,0,0,0,6.3-.42ZM232,36.13h7a2.19,2.19,0,0,1,2.18,2.19v29H229.77v-29A2.19,2.19,0,0,1,232,36.13Z" transform="translate(-16.26 -14.43)"/><path class="cls-2" d="M241.15,178v20.53A2.19,2.19,0,0,1,239,200.7h-7a2.19,2.19,0,0,1-2.19-2.19V178.13a47.47,47.47,0,0,0,5.08.27,46.73,46.73,0,0,0,6.3-.42M232,36.13h7a2.19,2.19,0,0,1,2.18,2.19v29H229.77v-29A2.19,2.19,0,0,1,232,36.13Z" transform="translate(-16.26 -14.43)"/><path class="cls-1" d="M239.8,178.14v20.08a2.19,2.19,0,0,1-2.19,2.19h-4.45a2.19,2.19,0,0,1-2.19-2.19v-20c1.28.11,2.57.16,3.88.16a47.69,47.69,0,0,0,5-.26ZM233.16,36.58h4.45a2.18,2.18,0,0,1,2.19,2.18V67.33H231V38.76a2.18,2.18,0,0,1,2.19-2.18Z" transform="translate(-16.26 -14.43)"/><path class="cls-8" d="M239.8,178.14v20.08a2.19,2.19,0,0,1-2.19,2.19h-4.45a2.19,2.19,0,0,1-2.19-2.19v-20c1.28.11,2.57.16,3.88.16a47.69,47.69,0,0,0,5-.26M233.16,36.58h4.45a2.18,2.18,0,0,1,2.19,2.18V67.33H231V38.76a2.18,2.18,0,0,1,2.19-2.18Z" transform="translate(-16.26 -14.43)"/><path class="cls-6" d="M194,155.28l-19.88,15c-1,.73-2,.85-2.75-.11l-3.1-4.63c-.72-1-.52-1.71.44-2.43l21.25-16.05a49.27,49.27,0,0,0,4,8.21Z" transform="translate(-16.26 -14.43)"/><path class="cls-9" d="M284.28,67.58V130.3c0,27.51-21.87,49.81-48.85,49.81s-48.86-22.3-48.86-49.81V67.58Z" transform="translate(-16.26 -14.43)"/><path class="cls-10" d="M263.67,88.48v42.11c0,15.91-12.64,28.81-28.24,28.81s-28.25-12.9-28.25-28.81V88.48Z" transform="translate(-16.26 -14.43)"/><path class="cls-11" d="M225.84,113.31v17.35a3.32,3.32,0,0,1-3.33,3.32h-9.13a3.32,3.32,0,0,1-3.32-3.32V113.31Zm35,0v17.35a3.31,3.31,0,0,1-3.32,3.32h-9.13a3.32,3.32,0,0,1-3.33-3.32V113.31Zm-17.51,22.06v17.35A3.32,3.32,0,0,1,240,156h-9.14a3.32,3.32,0,0,1-3.32-3.32V135.37Zm0-22.06v17.35A3.32,3.32,0,0,1,240,134h-9.14a3.32,3.32,0,0,1-3.32-3.32V113.31Zm0-22.06V108.6a3.33,3.33,0,0,1-3.32,3.33h-9.14a3.33,3.33,0,0,1-3.32-3.33V91.25Z" transform="translate(-16.26 -14.43)"/><path class="cls-12" d="M216,123.67a2,2,0,1,1,2,2,2,2,0,0,1-2-2Zm3.34,6a2,2,0,1,1,2,2,2,2,0,0,1-2-2Zm-6.68,0a2,2,0,1,1,2,2,2,2,0,0,1-2-2Zm6.68-12a2,2,0,1,1,2,2,2,2,0,0,1-2-2Zm-6.68,0a2,2,0,1,1,2,2,2,2,0,0,1-2-2Zm38.33,6a2,2,0,1,1,2,2,2,2,0,0,1-2-2Zm3.34,6a2,2,0,1,1,2,2,2,2,0,0,1-2-2Zm-6.68,0a2,2,0,1,1,2,2,2,2,0,0,1-2-2Zm6.68-12a2,2,0,1,1,2,2,2,2,0,0,1-2-2Zm-6.68,0a2,2,0,1,1,2,2,2,2,0,0,1-2-2Zm-14.17,28a2,2,0,1,1,2,2,2,2,0,0,1-2-2Zm3.34,6a2,2,0,1,1,2,2,2,2,0,0,1-2-2Zm-6.67,0a2,2,0,1,1,2,2,2,2,0,0,1-2-2Zm6.67-12a2,2,0,1,1,2,1.95,2,2,0,0,1-2-1.95Zm-6.67,0a2,2,0,1,1,2,1.95,2,2,0,0,1-2-1.95Zm3.33-16.08a2,2,0,1,1,2,2,2,2,0,0,1-2-2Zm3.34,6a2,2,0,1,1,2,2,2,2,0,0,1-2-2Zm-6.67,0a2,2,0,1,1,2,2,2,2,0,0,1-2-2Zm6.67-12a2,2,0,1,1,2,2,2,2,0,0,1-2-2Zm-6.67,0a2,2,0,1,1,2,2,2,2,0,0,1-2-2Zm3.38-16.1a2,2,0,1,1,2,2,2,2,0,0,1-2-2Zm3.34,6a2,2,0,1,1,2,2,1.95,1.95,0,0,1-2-2Zm-6.68,0a2,2,0,1,1,2,2,1.95,1.95,0,0,1-2-2Zm6.68-12a2,2,0,1,1,2,2,2,2,0,0,1-2-2Zm-6.68,0a2,2,0,1,1,2,2,2,2,0,0,1-2-2Z" transform="translate(-16.26 -14.43)"/><path class="cls-1" d="M269.14,160.68,268,159.22l-1,.81-.49-.62,1-.81-1.08-1.39-1,.81-.49-.62,1-.81-1.08-1.39-1,.81-.49-.62,1-.81-1.08-1.39-1,.81-.49-.62,1-.81-1.13-1.46-1.05.82L260,153l6.85,8.75,1.27-.27,1-.81Zm-6.93,4.21-6.31-8.08-7.22,2.67,9.2,11.77,4.33-6.36Zm4.18-3.68-5.91-7.56-4.38,3.42,5.91,7.56,4.38-3.42Zm-64.63-.53,1.14-1.46,1,.81.48-.62-1-.81,1.09-1.39,1,.81.48-.62-1-.81L206,155.2l1.05.81.48-.62-1-.81,1.08-1.39,1.05.81.48-.62-1-.81,1.14-1.46,1,.82.64,1.08-6.84,8.75-1.27-.27-1-.81Zm6.92,4.21,6.31-8.08,7.22,2.67L213,171.25l-4.34-6.36Zm-4.18-3.68,5.91-7.56,4.38,3.42-5.91,7.56-4.38-3.42Zm-13.39-47.48H193v1.32h.79v-1.32h1.76v1.32h.79v-1.32h1.76v1.32h.79v-1.32h1.76v1.32h.78v-1.32h1.86v1.32l-.46,1.17H191.68l-.57-1.17v-1.32Zm.94,8H202.3l2.35,7.34H189.71l2.34-7.34Zm.33-5.55H202v5.55h-9.6v-5.55Zm74.93-2.49h1.85v1.32H270v-1.32h1.76v1.32h.79v-1.32h1.76v1.32h.79v-1.32h1.76v1.32h.79v-1.32h1.85v1.32l-.46,1.17H267.88l-.57-1.17v-1.32Zm.94,8H278.5l2.35,7.34H265.91l2.34-7.34Zm.33-5.55h9.6v5.55h-9.6v-5.55Zm-1.27-45.93h1.85v1.32H270V70.29h1.76v1.32h.79V70.29h1.76v1.32h.79V70.29h1.76v1.32h.79V70.29h1.85v1.32L279,72.78H267.88l-.57-1.17V70.29Zm.94,8H278.5l2.35,7.34H265.91l2.34-7.34Zm.33-5.55h9.6v5.55h-9.6V72.78Zm-39.34-2.49h1.85v1.32h.78V70.29h1.77v1.32h.79V70.29h1.76v1.32H237V70.29h1.77v1.32h.78V70.29h1.85v1.32l-.45,1.17H229.8l-.56-1.17V70.29Zm.94,8h10.25l2.34,7.34H227.84l2.34-7.34Zm.33-5.55h9.59v5.55h-9.59V72.78Zm-39.4-2.49H193v1.32h.79V70.29h1.76v1.32h.79V70.29h1.76v1.32h.79V70.29h1.76v1.32h.78V70.29h1.86v1.32l-.46,1.17H191.68l-.57-1.17V70.29Zm.94,8H202.3l2.35,7.34H189.71l2.34-7.34Zm.33-5.55H202v5.55h-9.6V72.78Z" transform="translate(-16.26 -14.43)"/><path class="cls-8" d="M269.14,160.68,268,159.22l-1,.81-.49-.62,1-.81-1.08-1.39-1,.81-.49-.62,1-.81-1.08-1.39-1,.81-.49-.62,1-.81-1.08-1.39-1,.81-.49-.62,1-.81-1.13-1.46-1.05.82L260,153l6.85,8.75,1.27-.27,1-.81m-6.93,4.21-6.31-8.08-7.22,2.67,9.2,11.77,4.33-6.36m4.18-3.68-5.91-7.56-4.38,3.42,5.91,7.56,4.38-3.42m-64.63-.53,1.14-1.46,1,.81.48-.62-1-.81,1.09-1.39,1,.81.48-.62-1-.81L206,155.2l1.05.81.48-.62-1-.81,1.08-1.39,1.05.81.48-.62-1-.81,1.14-1.46,1,.82.64,1.08-6.84,8.75-1.27-.27-1-.81m6.92,4.21,6.31-8.08,7.22,2.67L213,171.25l-4.34-6.36m-4.18-3.68,5.91-7.56,4.38,3.42-5.91,7.56-4.38-3.42m-13.39-47.48H193v1.32h.79v-1.32h1.76v1.32h.79v-1.32h1.76v1.32h.79v-1.32h1.76v1.32h.78v-1.32h1.86v1.32l-.46,1.17H191.68l-.57-1.17v-1.32m.94,8H202.3l2.35,7.34H189.71l2.34-7.34m.33-5.55H202v5.55h-9.6v-5.55m74.93-2.49h1.85v1.32H270v-1.32h1.76v1.32h.79v-1.32h1.76v1.32h.79v-1.32h1.76v1.32h.79v-1.32h1.85v1.32l-.46,1.17H267.88l-.57-1.17v-1.32m.94,8H278.5l2.35,7.34H265.91l2.34-7.34m.33-5.55h9.6v5.55h-9.6v-5.55m-1.27-45.93h1.85v1.32H270V70.29h1.76v1.32h.79V70.29h1.76v1.32h.79V70.29h1.76v1.32h.79V70.29h1.85v1.32L279,72.78H267.88l-.57-1.17V70.29m.94,8H278.5l2.35,7.34H265.91l2.34-7.34m.33-5.55h9.6v5.55h-9.6V72.78m-39.34-2.49h1.85v1.32h.78V70.29h1.77v1.32h.79V70.29h1.76v1.32H237V70.29h1.77v1.32h.78V70.29h1.85v1.32l-.45,1.17H229.8l-.56-1.17V70.29m.94,8h10.25l2.34,7.34H227.84l2.34-7.34m.33-5.55h9.59v5.55h-9.59V72.78m-39.4-2.49H193v1.32h.79V70.29h1.76v1.32h.79V70.29h1.76v1.32h.79V70.29h1.76v1.32h.78V70.29h1.86v1.32l-.46,1.17H191.68l-.57-1.17V70.29m.94,8H202.3l2.35,7.34H189.71l2.34-7.34m.33-5.55H202v5.55h-9.6V72.78Z" transform="translate(-16.26 -14.43)"/><path class="cls-1" d="M197.18,79.64a2.43,2.43,0,0,1,2.25,2.57v3.46h-4.51V82.21a2.43,2.43,0,0,1,2.26-2.57Zm2.11-5.9a1.46,1.46,0,0,1,1.35,1.55v2.08h-2.7V75.29a1.45,1.45,0,0,1,1.35-1.55Zm-4.22,0a1.46,1.46,0,0,1,1.35,1.55v2.08h-2.7V75.29a1.45,1.45,0,0,1,1.35-1.55Zm63,87.91a2.43,2.43,0,0,0-3.42-.19l-2.72,2.13,2.78,3.55,2.72-2.13a2.43,2.43,0,0,0,.64-3.36Zm3.35-5.29a1.45,1.45,0,0,0-2.05-.11l-1.64,1.28,1.66,2.13,1.64-1.28a1.46,1.46,0,0,0,.39-2Zm2.6,3.32a1.45,1.45,0,0,0-2.05-.11l-1.65,1.28L262,163l1.64-1.28a1.47,1.47,0,0,0,.39-2Zm-51.12,2a2.43,2.43,0,0,1,3.42-.19l2.72,2.13-2.77,3.55L213.5,165a2.43,2.43,0,0,1-.64-3.36Zm-3.35-5.29a1.46,1.46,0,0,1,2.06-.11l1.64,1.28-1.67,2.13-1.64-1.28a1.47,1.47,0,0,1-.39-2Zm-2.6,3.32a1.46,1.46,0,0,1,2.06-.11l1.64,1.28L209,163l-1.65-1.28a1.47,1.47,0,0,1-.39-2Zm-9.73-36.6a2.43,2.43,0,0,1,2.25,2.57v3.46h-4.51v-3.46a2.43,2.43,0,0,1,2.26-2.57Zm2.11-5.9a1.46,1.46,0,0,1,1.35,1.55v2.08h-2.7v-2.08a1.45,1.45,0,0,1,1.35-1.55Zm-4.22,0a1.46,1.46,0,0,1,1.35,1.55v2.08h-2.7v-2.08a1.45,1.45,0,0,1,1.35-1.55Zm78.31,5.9a2.43,2.43,0,0,1,2.25,2.57v3.46h-4.51v-3.46a2.43,2.43,0,0,1,2.26-2.57Zm2.11-5.9a1.46,1.46,0,0,1,1.35,1.55v2.08h-2.7v-2.08a1.45,1.45,0,0,1,1.35-1.55Zm-4.22,0a1.45,1.45,0,0,1,1.35,1.55v2.08h-2.7v-2.08a1.45,1.45,0,0,1,1.35-1.55Zm2.11-37.54a2.43,2.43,0,0,1,2.25,2.57v3.46h-4.51V82.21a2.43,2.43,0,0,1,2.26-2.57Zm2.11-5.9a1.46,1.46,0,0,1,1.35,1.55v2.08h-2.7V75.29a1.45,1.45,0,0,1,1.35-1.55Zm-4.22,0a1.45,1.45,0,0,1,1.35,1.55v2.08h-2.7V75.29a1.45,1.45,0,0,1,1.35-1.55Zm-36,5.9a2.43,2.43,0,0,1,2.25,2.57v3.46h-4.51V82.21a2.43,2.43,0,0,1,2.26-2.57Zm2.11-5.9a1.46,1.46,0,0,1,1.35,1.55v2.08h-2.71V75.29a1.46,1.46,0,0,1,1.36-1.55Zm-4.23,0a1.46,1.46,0,0,1,1.36,1.55v2.08h-2.7V75.29a1.45,1.45,0,0,1,1.34-1.55Z" transform="translate(-16.26 -14.43)"/><path class="cls-8" d="M197.18,79.64a2.43,2.43,0,0,1,2.25,2.57v3.46h-4.51V82.21a2.43,2.43,0,0,1,2.26-2.57m2.11-5.9a1.46,1.46,0,0,1,1.35,1.55v2.08h-2.7V75.29a1.45,1.45,0,0,1,1.35-1.55m-4.22,0a1.46,1.46,0,0,1,1.35,1.55v2.08h-2.7V75.29a1.45,1.45,0,0,1,1.35-1.55m63,87.91a2.43,2.43,0,0,0-3.42-.19l-2.72,2.13,2.78,3.55,2.72-2.13a2.43,2.43,0,0,0,.64-3.36m3.35-5.29a1.45,1.45,0,0,0-2.05-.11l-1.64,1.28,1.66,2.13,1.64-1.28a1.46,1.46,0,0,0,.39-2m2.6,3.32a1.45,1.45,0,0,0-2.05-.11l-1.65,1.28L262,163l1.64-1.28a1.47,1.47,0,0,0,.39-2m-51.12,2a2.43,2.43,0,0,1,3.42-.19l2.72,2.13-2.77,3.55L213.5,165a2.43,2.43,0,0,1-.64-3.36m-3.35-5.29a1.46,1.46,0,0,1,2.06-.11l1.64,1.28-1.67,2.13-1.64-1.28a1.47,1.47,0,0,1-.39-2m-2.6,3.32a1.46,1.46,0,0,1,2.06-.11l1.64,1.28L209,163l-1.65-1.28a1.47,1.47,0,0,1-.39-2m-9.73-36.6a2.43,2.43,0,0,1,2.25,2.57v3.46h-4.51v-3.46a2.43,2.43,0,0,1,2.26-2.57m2.11-5.9a1.46,1.46,0,0,1,1.35,1.55v2.08h-2.7v-2.08a1.45,1.45,0,0,1,1.35-1.55m-4.22,0a1.46,1.46,0,0,1,1.35,1.55v2.08h-2.7v-2.08a1.45,1.45,0,0,1,1.35-1.55m78.31,5.9a2.43,2.43,0,0,1,2.25,2.57v3.46h-4.51v-3.46a2.43,2.43,0,0,1,2.26-2.57m2.11-5.9a1.46,1.46,0,0,1,1.35,1.55v2.08h-2.7v-2.08a1.45,1.45,0,0,1,1.35-1.55m-4.22,0a1.45,1.45,0,0,1,1.35,1.55v2.08h-2.7v-2.08a1.45,1.45,0,0,1,1.35-1.55m2.11-37.54a2.43,2.43,0,0,1,2.25,2.57v3.46h-4.51V82.21a2.43,2.43,0,0,1,2.26-2.57m2.11-5.9a1.46,1.46,0,0,1,1.35,1.55v2.08h-2.7V75.29a1.45,1.45,0,0,1,1.35-1.55m-4.22,0a1.45,1.45,0,0,1,1.35,1.55v2.08h-2.7V75.29a1.45,1.45,0,0,1,1.35-1.55m-36,5.9a2.43,2.43,0,0,1,2.25,2.57v3.46h-4.51V82.21a2.43,2.43,0,0,1,2.26-2.57m2.11-5.9a1.46,1.46,0,0,1,1.35,1.55v2.08h-2.71V75.29a1.46,1.46,0,0,1,1.36-1.55m-4.23,0a1.46,1.46,0,0,1,1.36,1.55v2.08h-2.7V75.29a1.45,1.45,0,0,1,1.34-1.55Z" transform="translate(-16.26 -14.43)"/><path class="cls-13" d="M193.08,29.45s-2,4.67-10.46,7.7a14.32,14.32,0,0,1-9.45-.88l-1.64-1.52a11.94,11.94,0,0,1,.88-10.1c6.18-10.1,11.85-9.72,11.85-9.72s1.64,7.2-4.79,14.27c0,0,4.28-2.28,13.61.25Zm-21.55,5.68a72.3,72.3,0,0,0-8.07,7.2m11.6-1.65s-.89,5-8.57,9.85A15.27,15.27,0,0,1,157,51.66l-1.9-1.13c-3.27-4.67-1.26-10.1-1.26-10.1,3.78-11.11,9.33-11.87,9.33-11.87s3.28,6.57-1.51,14.9c0,0,3.78-3.15,13.36-2.78ZM155.27,50.91a73.36,73.36,0,0,0-6.43,8.71m11.09-4s.13,5.17-6.3,11.49a14.36,14.36,0,0,1-8.95,3.15l-2.14-.76c-4.16-3.78-3.4-9.46-3.4-9.46,1.26-11.74,6.55-13.76,6.55-13.76s4.66,5.81,1.77,14.89c0,0,2.89-3.91,12.47-5.55ZM142.79,70a60.05,60.05,0,0,0-4.41,9.85m10-6.32s1.26,4.93-3.78,12.5a13.82,13.82,0,0,1-7.94,5l-2.27-.25a12,12,0,0,1-5.42-8.59c-1.26-11.74,3.53-14.76,3.53-14.76s5.67,4.66,4.91,14.13c0,0,2-4.42,11-8.08ZM134.6,91.18a77.11,77.11,0,0,0-2,10.47m8.2-8.2s2.39,4.54-.89,13a14.71,14.71,0,0,1-6.68,6.69l-2.26.13c-5.42-1.65-7.06-7.07-7.06-7.07C120.11,95,124,90.92,124,90.92s6.68,3.29,7.94,12.75c0,0,1-4.79,8.83-10.22Zm-9.46,20.19a66,66,0,0,0,.25,10.74m6.31-9.85s3.27,3.91,1.89,12.87a15,15,0,0,1-5,8l-2.15.76c-5.67-.51-8.57-5.43-8.57-5.43-6.05-10.1-3-15-3-15s7.06,1.76,10.46,10.72c0,0-.13-4.79,6.43-11.86ZM133,136.24a66.42,66.42,0,0,0,2.52,10.48m4-11s4,3.15,4.66,12.11a14.6,14.6,0,0,1-3.28,9L139,158c-5.67.76-9.45-3.53-9.45-3.53-8.19-8.46-6.3-13.89-6.3-13.89s7.31.26,12.47,8.21c0,0-1-4.67,3.79-13Zm-.13,22.34a62.12,62.12,0,0,0,4.79,9.59m1.51-11.61s4.66,2.14,7.18,10.86a14.14,14.14,0,0,1-1.26,9.46L150,177.9c-5.3,1.89-10-1.39-10-1.39C130.19,170,131,164.26,131,164.26s7.18-1.39,14,5.43c0,0-2.14-4.42.76-13.63Zm4.79,21.84a71.18,71.18,0,0,0,6.68,8.46m-1-11.74s5,1.13,9.33,9a14.66,14.66,0,0,1,.88,9.59l-1.26,1.77c-4.79,3-10.08.88-10.08.88-11-4.29-11.6-10-11.6-10s6.81-2.9,14.87,2.15c0,0-3-3.79-2.14-13.38Zm9.33,20.19a62.92,62.92,0,0,0,8.44,6.82m-3.53-11.24s5.05,0,11.09,6.82a14.86,14.86,0,0,1,2.9,9.09l-.88,2c-4,4-9.7,3.16-9.7,3.16-11.6-1.9-13.36-7.33-13.36-7.33s5.92-4.29,14.87-1.13c0,0-3.66-3-4.92-12.63Zm13.49,17.8a67,67,0,0,0,9.7,4.8m-5.92-10.23s5-1,12.35,4.3a14.24,14.24,0,0,1,4.66,8.2l-.37,2.28c-3,4.79-8.7,5-8.7,5-11.72.76-14.62-4.16-14.62-4.16s4.79-5.56,14.24-4.29c0,0-4.28-2.28-7.56-11.37Zm17,14.52a72.24,72.24,0,0,0,10.46,2.53m-7.93-8.71s4.66-2.15,13,1.51a14.35,14.35,0,0,1,6.43,6.94v2.28c-1.9,5.42-7.44,6.81-7.44,6.81-11.22,3.28-15.13-.88-15.13-.88s3.53-6.44,13-7.32c0,0-4.66-1.14-9.82-9.34ZM277.78,29.45s2,4.67,10.46,7.7a14.31,14.31,0,0,0,9.45-.88l1.63-1.52a11.94,11.94,0,0,0-.88-10.1c-6.17-10.1-11.84-9.72-11.84-9.72s-1.64,7.2,4.78,14.27c0,0-4.28-2.28-13.6.25Zm21.54,5.68a72.3,72.3,0,0,1,8.07,7.2m-11.6-1.65s.89,5,8.58,9.85a15,15,0,0,0,9.45,1.13l1.89-1.13C319,45.86,317,40.43,317,40.43c-3.78-11.11-9.45-11.87-9.45-11.87s-3.15,6.57,1.51,14.9c0,0-3.66-3.15-13.24-2.78Zm19.8,10.23A74,74,0,0,1,322,59.62m-11.09-4s-.12,5.17,6.3,11.49a14.36,14.36,0,0,0,8.95,3.15l2.14-.76c4.17-3.78,3.41-9.46,3.41-9.46-1.27-11.74-6.55-13.76-6.55-13.76s-4.67,5.81-1.77,14.89c0,0-2.9-3.91-12.48-5.55ZM328.06,70a60.54,60.54,0,0,1,4.42,9.85m-10-6.32s-1.26,4.93,3.65,12.5a14.44,14.44,0,0,0,8.07,5l2.27-.25c4.91-2.91,5.42-8.59,5.42-8.59,1.26-11.74-3.53-14.76-3.53-14.76s-5.68,4.66-4.92,14.13c0,0-2-4.42-11-8.08Zm13.73,17.68a77.11,77.11,0,0,1,2,10.47m-8.19-8.2s-2.39,4.54.88,13a14.77,14.77,0,0,0,6.68,6.69l2.27.13c5.42-1.65,7-7.07,7-7.07,3.79-11.24-.12-15.28-.12-15.28s-6.68,3.29-7.94,12.75c0,0-1-4.79-8.82-10.22Zm9.45,20.19a64.69,64.69,0,0,1-.25,10.74m-6.3-9.85s-3.28,3.91-1.89,12.87a15,15,0,0,0,5,8l2.15.76c5.67-.51,8.57-5.43,8.57-5.43,6.05-10.1,3-15,3-15s-7.05,1.76-10.45,10.72c0,0,.12-4.79-6.43-11.86Zm4.91,21.71a65.09,65.09,0,0,1-2.52,10.48m-4-11s-4,3.15-4.67,12.11a14.68,14.68,0,0,0,3.28,9l1.89,1.13c5.67.76,9.45-3.53,9.45-3.53,8.2-8.46,6.31-13.89,6.31-13.89s-7.44.26-12.48,8.21c0,0,1-4.67-3.78-13Zm.12,22.34a61,61,0,0,1-4.79,9.59m-1.5-11.61s-4.67,2.14-7.19,10.86a14.14,14.14,0,0,0,1.26,9.46l1.64,1.52c5.29,1.89,10-1.39,10-1.39,9.83-6.56,9.07-12.25,9.07-12.25s-7.19-1.39-14,5.43c0,0,2.14-4.42-.75-13.63Zm-4.79,21.84a72,72,0,0,1-6.69,8.46m1-11.74s-5,1.13-9.34,9a14.66,14.66,0,0,0-.88,9.59l1.26,1.77c4.79,3,10.08.88,10.08.88,11-4.29,11.6-10,11.6-10s-6.8-2.9-14.87,2.15c0,0,3-3.79,2.15-13.38Zm-9.34,20.19a63.18,63.18,0,0,1-8.43,6.82m3.52-11.24s-5,0-11.09,6.82a14.86,14.86,0,0,0-2.9,9.09l.89,2c4,4,9.7,3.16,9.7,3.16,11.6-1.9,13.36-7.33,13.36-7.33s-5.93-4.29-14.87-1.13c0,0,3.65-3,4.91-12.63ZM287,208.19a67.44,67.44,0,0,1-9.71,4.8m5.92-10.23s-5-1-12.35,4.3a14.24,14.24,0,0,0-4.66,8.2l.38,2.28c3,4.79,8.7,5,8.7,5,11.72.76,14.61-4.16,14.61-4.16s-4.79-5.56-14.24-4.29c0,0,4.29-2.28,7.56-11.37Zm-17,14.52a71.8,71.8,0,0,1-10.46,2.53m7.94-8.71s-4.67-2.15-13,1.51a14.35,14.35,0,0,0-6.43,6.94l-.13,2.28a11.72,11.72,0,0,0,7.57,6.81c11.21,3.28,15.12-.88,15.12-.88s-3.53-6.44-13-7.32c0,0,4.66-1.14,9.83-9.34Zm-27.85,17.8a7.43,7.43,0,0,1-7.31-7.45,7.37,7.37,0,1,1,14.74,0,7.45,7.45,0,0,1-7.43,7.45Z" transform="translate(-16.26 -14.43)"/><path class="cls-14" d="M349.43,213.47s-2.92.34.84-4.86c0,0,.5-.5-.67-2.84,0,0-1.76-6.62.58-9.47,0,0-1.17-4.27,2.51-5.44,0,0-.75-4.11,6.77-4.44,0,0,4.1-2,7.53-1.59,0,0,7.95-.17,10.45,2.34,0,0,9.71,1.93,10.13,15.5,0,0-.26,6,1.33,9,0,0,1.76,5.19-1,8.46a41.64,41.64,0,0,0-5.77,9.13s.17,1.76-1.59,4.86c0,0-1.51,1.17-.59,2.18,0,0,10-1.18,17.07.16,0,0,4.26.17,8.11,4.61a32.33,32.33,0,0,1,11.29,1.17s2.51-5-2.93-15.49c0,0-6.78-4.28-9.12-7.71,0,0-4-.25-6,.5,0,0-6.77.84,1.42-3.68,0,0-4.51.25-6.77.58,0,0-2.76-.75,6.52-3.85,0,0-4.43-2.09-7.52-2.09,0,0-2.09-1.43,7.19-1.59,0,0-.59-.76-3.93-4.86,0,0-2.68-5.78,1.42-1.93a41.22,41.22,0,0,1,5.35,4.86s9.54,5.78,14.14,13c0,0,1.42,2.93,6.6,9.55,0,0,9.45,10.22,14,23.45,0,0,2.09,7.37-4.52,7.37,0,0-30.94-1.17-37.88-5.27,0,0-14.63,11.81-19.07,26.63l.25,8.46c1.84,6.79,4.85,18.18,5.27,22.53,0,0,17.4,1.68,25.34,17.85,0,0,5.44,23.62-16.64,19.76,0,0-12.05-2.51-15.14-3.94,0,0-3.26,6.62.59,12.49,0,0,5.43,5.36.25,5.78s-.59-.17-.59-.17-6,2.85-8.36.75c0,0-4.6-1.92-3.51-5.44,0,0-.76-10.47-2.09-13.15,0,0-4.1-12.23,3.51-10.14,0,0,1.92-1.5.75-3.26,0,0-8.53-2.93-8.95-7,0,0-5.6-2-14.3-.58,0,0-26.34,10.64-35.37,12.73,0,0-19,4.52-20.74,6.28,0,0-9,2.85-12.8,2.09,0,0-10,3.69-11.21,6.37L221.81,356s1.76,6-3.84,6c0,0-13.38-1.34-15.14.92,0,0-6.36,2.35-8.28,0,0,0-5.6,1-6.61,1.18,0,0-5.43-.59.42-4.86,0,0,10.2-7.12,14.47-7.12,0,0,23.08-8.38,25-8.54s7.78-2.94,7.78-2.94,20.07-8.88,33.62-9.88A48.56,48.56,0,0,1,285,323.45s4.6-11.06,27.69-16.5c0,0,18.39-8.13,20.73-11.22l2.26-6.2s3.51-3.69,1.59-13.57c0,0-6.36-31.24-8.62-36.36,0,0-17.14-8.45-25-20.94,0,0-1.17-6.36-11.29-8.45,0,0-16-12.15-21.24-22.12,0,0-5.19.92-13.05-2.59,0,0-16-7-3.51-7.29,0,0-6.6-7.79-10.45-9.88,0,0-5.19-5.2,2.67-2.6,0,0,11.29,4.69,14.8,7.29,0,0,7.28,4.94,13.64,10.13a58.43,58.43,0,0,0,16.56,7.29s14,5.53,17.73,13.65c0,0,11.87,7.29,19.14,13.74,0,0,6.11-.92,16.82,9.3,0,0,4.34,1.17,10.45-.93,0,0,1.76-2.59-2.59-2.59,0,0-3.93.08-2.84-4.44a1.43,1.43,0,0,0,.24-1.17s-.5,0-.08-.76c0,0-.92-.59-.84-1.17l.42-1.59a1.74,1.74,0,0,0-.75-1Z" transform="translate(-16.26 -14.43)"/><path class="cls-14" d="M120.71,206.35a2.1,2.1,0,0,1-.34,1.68,3.61,3.61,0,0,0,.34,1.51,3.78,3.78,0,0,1-3.77,4.27,18,18,0,0,0-4.68.42s-1.17,1.75,1.17,4.35a13.22,13.22,0,0,0,7.53-1.42s4.68-8.46,12.79-7.88c0,0,2.34-1.75,11.88-.33,0,0,11.62-9.88,22.41-11.64,0,0,15.05-12.73,26.68-14.49,0,0,11-7,18-9.3,0,0,14.55-8.71,20.9-9.3,0,0,12.8-4.94,8.79,1.42,0,0-3.52,3.77-7.28,5,0,0-3.51,3.68-8.53,8.37,0,0-3.68,5.62-13.55,3.86,0,0-17.73,27.05-37.72,29.65,0,0-20.9,23.53-31.94,21.77,0,0-5.27,19.86-11,30.33,0,0-4.93,18-2.68,29.31,0,0,2.35,4.94,21.83,12.23,0,0,17.4,4.11,37.47,23.87,0,0,18.23,1.76,24.08,2.35,0,0,14.8,2.85,24.09,11.56,0,0,2.59,3.51,14.8,5.86,0,0,3.76,3.77,22.41,9.55,0,0,13.3,7.87,6.61,10.47,0,0-8.12,2.68-18.23-2.26,0,0-7.28,1.76-12-6.12,0,0-2.26-2.34-8.95-3.51,0,0-14-1.43-19.48.92,0,0-17.15-.92-22.92-9.05,0,0-15.14,1.42-24.09-3.18,0,0-32.53-4.36-40.72-8.21a23.49,23.49,0,0,1-16.48-7.2s-4.68,4.35-13.13,1.42c0,0-2.59,5.53-7.27,6.7,0,0,5.27,4.94,2.67,11.31,0,0-9.86,16.58-9.61,19.51,0,0-4.35,9.3-10.71,4.61,0,0-17.73,1.51-3.26-4.61,0,0,5.27-4.35,5.52-10.8,0,0,2.34-6.37-6-7.54,0,0-10.79-.25-14,.59,0,0-32.28.92-18.31-25,0,0,6.94-18.93,18.56-19.52,0,0,10.79-1.17,15.73-1.17,0,0,4-11.65-6.11-29.4a80.41,80.41,0,0,1-14.8-27.06s-4.94-6.11-5.52-11.3c0,0-12.46,1.42-16.89-6.12,0,0-13.64-12.82-16.81-15.66,0,0-3.77-2.1,0-7.62s5.52-8.72,5.52-8.72,11.29-15.66,29-20.1c0,0,2.1-3.18,9.62-.25,0,0,3.77,0,8.7.25,0,0,6.69,2.1,5.27,12.23a51.14,51.14,0,0,1-5,4.94s-1.42,5.53-5.77,1.18c0,0-8.7-5.2-8.45-8.72,0,0,.34-1.42-3.17.34,0,0-7.53,13.65-9.87,18.26,0,0,4.93-.59,12.21,3.18,0,0,17.39-2,20.32,4.11,0,0,6.36,3.51,10.2-4.36a7.7,7.7,0,0,1-5-6.11s-1.67-5.53,0-7.88c0,0-3.17-2,0-6.36,0,0-2.59-9.89,1.76-11.9,0,0,4.68-5.86,7.61-7.87,0,0,1.67-2.6,8.11-1.17,0,0,4.35-1.76,14.81,1.17,0,0,8.69,2.93,8.69,8.12,0,0,1.42,3.52-1.42,5.87,0,0,2,4.94-.33,8.71,0,0,6.1,6.95.92,7.2l-1.26-.25s1-.08.59,1.17c0,0,.83,3.1-.5,3.77Z" transform="translate(-16.26 -14.43)"/><path class="cls-15" d="M86.75,211.88a7.7,7.7,0,0,1-5-6.11s-1.67-5.53,0-7.88c0,0-3.17-2,0-6.36,0,0-2.59-9.89,1.76-11.9,0,0,3.51-4.94,6.44-7,0,0,2.84-3.77,9.28-2,0,0,4.35-1.76,14.81,1.17,0,0,8.69,2.93,8.69,8.12,0,0,1.42,3.52-1.42,5.87,0,0-3.76-1.51-5.27,0,0,0-1.17,3.43-6.94,4.94,0,0,.25,5.19-5.85,7.79,0,0-1.09,5.86-4.94,1.51,0,0-1.67-2.35-5.77,3.18,0,0-1.17,3.77-5.77,8.71Z" transform="translate(-16.26 -14.43)"/><path class="cls-16" d="M44,209s-1.17,2.09-5.52,5.53m6.94-1.76s-.25,2.34.58,3.52m1.18,1.42s0,2.68,5.85,4.1m4-9.63s2.1,0,4.1,5.28m4.68,5.53s4.35,1.17,6,4.94m4.68-11.64s0,3.76,6.36,5.52m-8.37,17.43s0,14.91,5.52,14.32m2.59-3.27s2.93,1.51,3.18,3.27m-12.21,2.85a12.92,12.92,0,0,0,6.11,3.77M74,263.64s4.35,1.18,5.77,3.52m-7.28,6.95s4.68,6.37,3.26,10.81m5.52-5.28s1.42-6.11,4.94-6.36m3.17-15.75s8.7.33,14.47-8.71m2.34-3.77s-3.17-8.13-2-12.82m-11-20.6s1.17,8.71-.59,11m.84,2.1s4.35,0,6.44,2m.58-4.36,3.18-.84m-.58,6.62s6.94-7.54,11.29-6.37m-2-7.53a50,50,0,0,1-4.93-.93m27,17.76s1.17-11.31,6.69-13.9m6.35,2.26s4.35,1.51,10.46-1.76c0,0,9.28-5.19,13.38-6.62m4.93-12s4.1-1.18,6.36-1.76M130.82,242.7s-.25,12.24-19.4,9.64M94.28,267.75s5.18-3.77,8.7-2.35m5.52-1.17s3.17-1.76,4.59,0m5.27,3.77s5.52,3.52,5.52,8.46M103.81,254.1s1.76-1.51,2.93-.34M122.13,248l2-.33m3.85,6.7s3.18-.84,3.18-3.18m-1.76,7.28s2.35.25,3.18-1.51m-1.42,5.53s-.34,3.52.59,4.94m-27.35,0s.33,5.53-.25,7.63a5.16,5.16,0,0,1,1.42,5.19s-1.76.84-1.76,6.11m12.8,6.37s3.51-8.38,5.52-11.06M92.52,203.17s4.1,4.36,6.11,0M101,279.39a7.45,7.45,0,0,0-6.44-1.17m-11.62,8.71a6.63,6.63,0,0,1,3.84,5.53m17.06-2.6a2.12,2.12,0,0,1-.25,2.6" transform="translate(-16.26 -14.43)"/><path class="cls-15" d="M129.65,293.88l7,5.28s-16.89,6.7-18.57,32A15.42,15.42,0,0,1,105,332.58s-2.59-19.77-26.42-26.13v-1.51s40.64,8.12,51.09-11.06Z" transform="translate(-16.26 -14.43)"/><path class="cls-16" d="M90.18,300.33s2.34,1.09,3.76,5.78m21.83-9.05s-2.93,3.86-2.34,6.45M59.16,316.33a4.26,4.26,0,0,1,3.42-2.68s10.79,0,13.38.59M68.1,328.81s3.18-7.87,6.11-11.06m-9.29,12.49A14.2,14.2,0,0,0,57.65,334m20.91-3.76s6.69-8.13,10.2-8.72M54.81,347.15s2.25-2.93,3.76-5.27m39.14-2.6s-13.3,1.76-16.48-.34c0,0-4.43-3.18-10.79-.58,0,0-2.59,2.68-8.11,1.76m18.9-1.18a11.44,11.44,0,0,1-.33,7,12.92,12.92,0,0,1-6.69,2.35m21.24,0a4.44,4.44,0,0,1-1.76,4.35m43.24-25.29s13.38,6.95,17.48,10.72a6.66,6.66,0,0,0,4.6,1.76m7.27.16,4.1,3.77s.25,2.35,6,1.76a64.39,64.39,0,0,1,6.44-.33M184.26,334s3.52,2.94,4.35,5.53M169.8,320.94s4.93,2.34,6.94,5.27M138.69,307s8.69,2.09,14,4.69c0,0,9.87,2.35,11.88,6.11m50.26,20.95s7.53.58,9,3.76m-24.34,7.29s7.78-3.52,14.22-1.17c0,0,6.35,1.76,10.7.84m12.21.33s4.68,2.93,7.86,3.18c0,0,4.68,5.28,10.12,7.29m27,5.78-3.17-1.42M56.23,228.72s6.1.58,8.69,3.26" transform="translate(-16.26 -14.43)"/><path class="cls-15" d="M111.09,205.77a.59.59,0,1,0,.58-.59.57.57,0,0,0-.58.59Z" transform="translate(-16.26 -14.43)"/><path class="cls-15" d="M114.85,206.1s4.27.67,5.86.25l-5.86-.25Z" transform="translate(-16.26 -14.43)"/><path class="cls-16" d="M114.85,206.1s4.27.67,5.86.25" transform="translate(-16.26 -14.43)"/><polygon class="cls-15" points="105.61 187.23 102.94 186.73 105.61 187.23 105.61 187.23"/><path class="cls-16" d="M121.88,201.66l-2.68-.5m-1.09-10s-4.09.59-5.27,2.35m4.69-.59a2.13,2.13,0,0,1-2.93,1.51" transform="translate(-16.26 -14.43)"/><path class="cls-15" d="M96.62,200.82a.57.57,0,0,0,.59.59.59.59,0,0,0,0-1.17.57.57,0,0,0-.59.58Z" transform="translate(-16.26 -14.43)"/><path class="cls-16" d="M235.11,170.59s-4.68-2-10.79,2.34M56.81,190.35s-.92-3.1-.33-3.76" transform="translate(-16.26 -14.43)"/><path class="cls-17" d="M370.67,226.54a9.9,9.9,0,0,0-2.09-5.86,20.38,20.38,0,0,1-1.34-3.1c-.75-1.18-.25-1.51-.25-1.51a2,2,0,0,0,1.17-.42c.42-1.17-3.84-4.27-3.84-4.27s-7.2-4.61-7.53-11.81c0,0-.59-1.51-1.76-1.76a4.09,4.09,0,0,0-1.75,1.76s-1.51,5.78-3.43,6.7c-.17.08-.17-.34-.25-.5,0,0-1.76-6.62.58-9.47,0,0-1.17-4.27,2.51-5.44,0,0-.75-4.11,6.77-4.44,0,0,4.1-2,7.53-1.59,0,0,7.95-.17,10.45,2.34,0,0,9.71,1.93,10.13,15.5,0,0-.26,6,1.33,9,0,0,1.76,5.19-1,8.46a41.64,41.64,0,0,0-5.77,9.13s.17,1.76-1.59,4.86c0,0-1.51,1.17-.59,2.18,0,0-1.33,3.68-5.6-1.43,0,0-2.09.67-1.84-2a2.23,2.23,0,0,0-.5-1.34,5.42,5.42,0,0,1-.17-1.76,1.8,1.8,0,0,0-.58-1.51s-.84-.33-.59-1.67Z" transform="translate(-16.26 -14.43)"/><path class="cls-16" d="M203.41,362.48s2.93-3.43,5.27-.33m36.38-14.24s1.34-2.18,18.23-4.44m5.35-2.93s.84-1.34,3.94-1.76m20.65-14.16s14.13-1.5,16.47.59m9.12-1.51s9.28-1.76,11.63-4.1m39.3,41.29s1.93,3.27,3.69,3.52m-10.29-24a5.52,5.52,0,0,0,0,3.69m1.92-8.8a37.69,37.69,0,0,1,11.45,1.59s5.78,4.44,9.29,5.78m-15.47-7.37a7.94,7.94,0,0,0,2.84,7.2M378.62,320s3.93,1.92,4.85,9.88c0,0-.59,4.61,4.85,10.05m-7.53-27.31s-4.68.76-8.53.92" transform="translate(-16.26 -14.43)"/><path class="cls-15" d="M377.11,296.48l1.51,6.62s-2.68.16-4,1.34c0,0-14.72,14.4-18.65,21.77,0,0-7.52-2.17-13.71-.83,0,0-6-26.56-9.45-28.48,0,0,1.92-5.2,2.67-6,0,0,9.87,9.55,18,12.81a204.15,204.15,0,0,0,23.67-7.2Z" transform="translate(-16.26 -14.43)"/><path class="cls-16" d="M343.41,285.09s.75,4.27,3.1,6.36m23-8.88-.16-5.27M344,275a4.39,4.39,0,0,0,0,3.26m25.17,9.89a12.23,12.23,0,0,1-3.52,7.2" transform="translate(-16.26 -14.43)"/><path class="cls-15" d="M334.29,263.14s4.1-.58,6.19.59c0,0,5.27,1.93,9.12-.34a24.45,24.45,0,0,0,4.84-2.17l.76-1.51,4.26-.25s2.18,6,17.06,9.54l2.68,3.86,1.34-2.35s.59-19.6-1.67-23.78l-2.35-1-3.51.59s-9.28,3.51-13.71,11.64H356s-4-9.55-11.54-16.08l-2.59-.59s-6.78,8.88-7.7,18.6l.17,3.26Z" transform="translate(-16.26 -14.43)"/><path class="cls-18" d="M355.2,258s1.34-3.52.42-5.61m4.26,5.36s-.58-3.27.76-5.36" transform="translate(-16.26 -14.43)"/><path class="cls-16" d="M359.46,232.15s1,3.1,2.77.17m-32.37-6S333,238.18,337.22,242M312.8,220.68s3.93,5.86,13,9.88m-34.2-32.16s6.77,4.44,13.13,5.86m-50.18-26A12.17,12.17,0,0,0,260.2,180M405.13,241a8.77,8.77,0,0,0-4.44,2.76m1.93,7.71s9.53,1.17,12.38,0m1.42-9.3a40.65,40.65,0,0,1,7.35,10.47" transform="translate(-16.26 -14.43)"/><polygon class="cls-15" points="325.56 226.85 332 212.86 332.92 212.7 328.15 227.44 325.56 226.85 325.56 226.85"/><polygon class="cls-15" points="360.26 231.29 363.19 221.41 364.28 221.41 362.61 232.29 360.26 231.29 360.26 231.29"/><path class="cls-16" d="M350.85,217.24s1.67-.42,2.34.34a2.85,2.85,0,0,0,2.18.33m-5.69-4.35s.42.75,2.18.75m8.11-7.62a8.23,8.23,0,0,0-6.36-1.18m4.27,2.43s-.42-.5-2.51-.5" transform="translate(-16.26 -14.43)"/><path class="cls-15" d="M357.29,217.66a.43.43,0,1,1,.34-.42.39.39,0,0,1-.34.42Z" transform="translate(-16.26 -14.43)"/><path class="cls-15" d="M356,295.14a.94.94,0,0,0,1-.84,1,1,0,0,0-1-.84.94.94,0,0,0-1,.84.89.89,0,0,0,1,.84Z" transform="translate(-16.26 -14.43)"/><path class="cls-16" d="M355.45,224a40,40,0,0,0,4.27.92m-14.3,2.18.92,1.34m36.79,7.79-2,.75m-71.67-32.92-1.84.34" transform="translate(-16.26 -14.43)"/><path class="cls-19" d="M198.11,259.55a12.52,12.52,0,0,1-1.27,5.76,11.49,11.49,0,0,1-3.53,4.14,15,15,0,0,1-4.9,2.4,20.35,20.35,0,0,1-5.65.77H178.1v12.59a4.43,4.43,0,0,0,.34,1.81,2.32,2.32,0,0,0,1.39,1.18,8.39,8.39,0,0,0,1.86.38,23,23,0,0,0,2.45.21v2.08H166.29v-2.08l2-.21a6.93,6.93,0,0,0,1.86-.38,2.52,2.52,0,0,0,1.28-1.11,4,4,0,0,0,.39-1.88v-30a5.55,5.55,0,0,0-.29-1.84,2.14,2.14,0,0,0-1.38-1.23,11.3,11.3,0,0,0-2.21-.54c-.73-.11-1.36-.19-1.89-.22V249.3h19a15,15,0,0,1,9.42,2.79A9,9,0,0,1,198.11,259.55Zm-8.91,7.09a7.72,7.72,0,0,0,1.32-2.92,12.78,12.78,0,0,0,.33-2.71,15.36,15.36,0,0,0-.4-3.39,7.87,7.87,0,0,0-1.36-3,6.83,6.83,0,0,0-2.7-2.14,10,10,0,0,0-4.16-.76H178.1v18.37h3a11.65,11.65,0,0,0,5.14-1A7.51,7.51,0,0,0,189.2,266.64Z" transform="translate(-16.26 -14.43)"/><path class="cls-19" d="M233.94,259.7h-2.2a15,15,0,0,0-2.56-5q-2-2.62-3.73-2.9c-.61-.07-1.33-.13-2.16-.17s-1.77-.06-2.82-.06h-7v16.7h4.78a9.7,9.7,0,0,0,3.37-.46,5.16,5.16,0,0,0,2.05-1.39,6,6,0,0,0,1.07-2,12.31,12.31,0,0,0,.63-2.92h2.22v16.32h-2.22a13,13,0,0,0-.6-2.93,7.75,7.75,0,0,0-1.1-2.37,4.38,4.38,0,0,0-2.21-1.48,11.16,11.16,0,0,0-3.21-.4h-4.78V285a3.89,3.89,0,0,0,.38,1.73,2.92,2.92,0,0,0,1.35,1.23,11.34,11.34,0,0,0,1.91.5,15.94,15.94,0,0,0,2.22.32v2.08h-18v-2.08c.59,0,1.37-.1,2.35-.19a6.9,6.9,0,0,0,1.9-.34,2.51,2.51,0,0,0,1.28-1.13,3.86,3.86,0,0,0,.39-1.8v-30a4.17,4.17,0,0,0-.32-1.71,2.49,2.49,0,0,0-1.35-1.22,9.67,9.67,0,0,0-2.12-.67,14,14,0,0,0-2.13-.35V249.3h32.61Z" transform="translate(-16.26 -14.43)"/><path class="cls-19" d="M265.91,271.5a10.15,10.15,0,0,1,3,3.23,9.16,9.16,0,0,1,1.2,4.83,9.77,9.77,0,0,1-1.26,5,10.81,10.81,0,0,1-3.28,3.51,14.75,14.75,0,0,1-4.43,2.05,18.67,18.67,0,0,1-5.12.71H236.35v-2.08c.46,0,1.15-.12,2.05-.25a7.75,7.75,0,0,0,1.93-.46,2.67,2.67,0,0,0,1.29-1.09,3.7,3.7,0,0,0,.38-1.78V255.33a4.25,4.25,0,0,0-.34-1.76,2.52,2.52,0,0,0-1.33-1.23,8.22,8.22,0,0,0-2-.67,12.37,12.37,0,0,0-1.82-.29V249.3h19.19a20.31,20.31,0,0,1,4.26.43,12.85,12.85,0,0,1,3.88,1.56,8.41,8.41,0,0,1,2.85,2.78,7.86,7.86,0,0,1,1.11,4.28,9.2,9.2,0,0,1-.79,3.91,8.57,8.57,0,0,1-2.23,2.94,13.17,13.17,0,0,1-3.09,2,18.44,18.44,0,0,1-3.76,1.25v.26a22.4,22.4,0,0,1,4,.89A14,14,0,0,1,265.91,271.5Zm-7.06-6.27a7.15,7.15,0,0,0,1.5-2.75,12.82,12.82,0,0,0,.43-3.55,7.43,7.43,0,0,0-1.88-5.37q-1.87-2-5.91-1.95c-.63,0-1.41,0-2.36,0l-2.39.08v16H252a12.25,12.25,0,0,0,4.12-.61A6.48,6.48,0,0,0,258.85,265.23Zm4,13.27a8,8,0,0,0-2.48-6.06q-2.48-2.37-7.07-2.37c-1.25,0-2.31,0-3.17,0l-1.93.07v14.65a3.1,3.1,0,0,0,1.49,2.79,7.89,7.89,0,0,0,4.16.93,8.56,8.56,0,0,0,6.68-2.55Q262.9,283.47,262.89,278.5Z" transform="translate(-16.26 -14.43)"/><path class="cls-19" d="M303.94,271.5a10.15,10.15,0,0,1,3,3.23,9.16,9.16,0,0,1,1.2,4.83,9.77,9.77,0,0,1-1.26,5,10.81,10.81,0,0,1-3.28,3.51,14.8,14.8,0,0,1-4.44,2.05,18.55,18.55,0,0,1-5.11.71H274.37v-2.08c.47,0,1.16-.12,2.06-.25a7.75,7.75,0,0,0,1.93-.46,2.72,2.72,0,0,0,1.29-1.09,3.7,3.7,0,0,0,.38-1.78V255.33a4.25,4.25,0,0,0-.34-1.76,2.52,2.52,0,0,0-1.33-1.23,8.22,8.22,0,0,0-2-.67,12.37,12.37,0,0,0-1.82-.29V249.3h19.19a20.38,20.38,0,0,1,4.26.43,12.85,12.85,0,0,1,3.88,1.56,8.41,8.41,0,0,1,2.85,2.78,7.86,7.86,0,0,1,1.11,4.28,9.35,9.35,0,0,1-.79,3.91,8.57,8.57,0,0,1-2.23,2.94,13.17,13.17,0,0,1-3.09,2,18.44,18.44,0,0,1-3.76,1.25v.26a22.12,22.12,0,0,1,4,.89A14,14,0,0,1,303.94,271.5Zm-7.07-6.27a7,7,0,0,0,1.51-2.75,12.82,12.82,0,0,0,.43-3.55,7.43,7.43,0,0,0-1.88-5.37q-1.87-2-5.91-1.95c-.63,0-1.42,0-2.36,0l-2.39.08v16H290a12.19,12.19,0,0,0,4.11-.61A6.36,6.36,0,0,0,296.87,265.23Zm4.05,13.27a8,8,0,0,0-2.48-6.06q-2.47-2.37-7.07-2.37c-1.25,0-2.31,0-3.17,0l-1.93.07v14.65a3.1,3.1,0,0,0,1.49,2.79,7.89,7.89,0,0,0,4.16.93A8.56,8.56,0,0,0,298.6,286Q300.92,283.47,300.92,278.5Z" transform="translate(-16.26 -14.43)"/></svg>