<svg id="Camada_1" data-name="Camada 1" xmlns="http://www.w3.org/2000/svg" width="421.03" height="431.02" viewBox="0 0 421.03 431.02"><defs><style>.cls-1{fill:#b32537;}.cls-2{fill:#026836;}.cls-3,.cls-5,.cls-7,.cls-8,.cls-9{fill:#fbe02b;}.cls-11,.cls-12,.cls-13,.cls-14,.cls-16,.cls-17,.cls-19,.cls-3,.cls-5,.cls-7,.cls-8,.cls-9{fill-rule:evenodd;}.cls-10,.cls-18,.cls-20,.cls-4,.cls-6{fill:none;}.cls-10,.cls-11,.cls-12,.cls-15,.cls-16,.cls-18,.cls-19,.cls-20,.cls-21,.cls-22,.cls-4,.cls-5,.cls-6,.cls-7,.cls-8,.cls-9{stroke:#231f20;}.cls-10,.cls-11,.cls-12,.cls-15,.cls-16,.cls-18,.cls-19,.cls-20,.cls-4,.cls-5,.cls-6,.cls-7,.cls-8,.cls-9{stroke-miterlimit:2.61;}.cls-4,.cls-5{stroke-width:1.16px;}.cls-6{stroke-width:0.39px;}.cls-7{stroke-width:1.24px;}.cls-10,.cls-8{stroke-width:0.19px;}.cls-9{stroke-width:1.19px;}.cls-11{fill:#b93039;stroke-width:2.03px;}.cls-12,.cls-14,.cls-21,.cls-22{fill:#fff;}.cls-12{stroke-width:1.17px;}.cls-13{fill:#0077ab;}.cls-15{fill:#f6cf32;}.cls-16{fill:#f7dac6;}.cls-16,.cls-18,.cls-19{stroke-width:0.49px;}.cls-17,.cls-19{fill:#231f20;}.cls-20{stroke-width:0.36px;}.cls-21,.cls-22{stroke-miterlimit:10;}.cls-21{stroke-width:1.5px;}.cls-22{stroke-width:0.7px;}</style></defs><title>Logo_FPCF</title><polygon class="cls-1" points="218.57 0 349.39 0 349.39 431.02 218.57 314.11 218.57 0"/><polygon class="cls-2" points="218.57 314.11 87.76 431.02 87.76 0 218.57 0 218.57 314.11"/><path class="cls-3" d="M267.53,193.87a2.2,2.2,0,0,0,3,.22,2.75,2.75,0,0,1-2.8,1.33c-6.95-2.53-21.64-4-42.86-5.84v-.65a47.25,47.25,0,0,0,19.91-7.47l12.69,1.26,10,11.15ZM169.42,174l15.67,1.55a47.91,47.91,0,0,0,23.08,12.65c-14.95-1.23-32.25-2.67-51.62-4.63-.94-.1-4-4.74-5.23-7.3l4.14,5.5a2.19,2.19,0,0,0,3.07.43l10.89-8.2Z"/><path class="cls-4" d="M267.53,193.87a2.2,2.2,0,0,0,3,.22,2.75,2.75,0,0,1-2.8,1.33c-6.95-2.53-21.64-4-42.86-5.84v-.65a47.25,47.25,0,0,0,19.91-7.47l12.69,1.26,10,11.15M169.42,174l15.67,1.55a47.91,47.91,0,0,0,23.08,12.65c-14.95-1.23-32.25-2.67-51.62-4.63-.94-.1-4-4.74-5.23-7.3l4.14,5.5a2.19,2.19,0,0,0,3.07.43l10.89-8.2Z"/><path class="cls-5" d="M265.87,149.86l18.1-5.1L296.86,149a2.18,2.18,0,0,0,2.76-1.4l1.55-4.77-1,4.55a3.19,3.19,0,0,1-1.93,3l-36.68,12.13a49.4,49.4,0,0,0,4.29-12.61Z"/><path class="cls-3" d="M295.51,97.86c.05.1.09.19.13.29l.05.14-.18-.43Zm-28.7,7.69,17.93-6,10.69,3.88c1,.38,1.72.15,1.84-.5l.65,1.88a2.19,2.19,0,0,1-1.35,2.78l-29.76,10v-12Z"/><path class="cls-4" d="M295.51,97.86c.05.1.09.19.13.29l.05.14-.18-.43m-28.7,7.69,17.93-6,10.69,3.88c1,.38,1.72.15,1.84-.5l.65,1.88a2.19,2.19,0,0,1-1.35,2.78l-29.76,10v-12Z"/><path class="cls-5" d="M149.63,84.47l.34-.29a2.2,2.2,0,0,0,.71,2.68l19.69,14.3v7.48l-3.63,2c-8.72-10.15-17.66-21.56-17.38-23.13a2.18,2.18,0,0,1,.27-3.08Z"/><path class="cls-5" d="M136.6,136.79l.09-.44c.12,1,1.21,1.26,2.51.53l10-5.6c7.21,1.67,14.24,3.25,21.19,4.64v4.26a52.63,52.63,0,0,0,.3,5.51l-32.34-6.33a2.2,2.2,0,0,1-1.73-2.57Z"/><path class="cls-3" d="M147,129.93a71.85,71.85,0,1,0,71.85-71.84A71.85,71.85,0,0,0,147,129.93Zm-9.22,0A81.07,81.07,0,1,1,218.85,211a81.07,81.07,0,0,1-81.07-81.06Z"/><path class="cls-4" d="M147,129.93a71.85,71.85,0,1,0,71.85-71.84A71.85,71.85,0,0,0,147,129.93m-9.22,0A81.07,81.07,0,1,1,218.85,211a81.07,81.07,0,0,1-81.07-81.06Z"/><path class="cls-6" d="M218.85,51.06A78.88,78.88,0,1,1,140,129.93a78.87,78.87,0,0,1,78.88-78.87Zm0,4.84a74,74,0,1,1-74,74,74,74,0,0,1,74-74Z"/><path class="cls-5" d="M178.34,167.27,158.53,182.2a2.19,2.19,0,0,1-3.07-.43l-4.21-5.59a2.19,2.19,0,0,1,.43-3.07l21.54-16.23a49.94,49.94,0,0,0,5.12,10.39Z"/><path class="cls-7" d="M266.81,81.85l23.4,8.49a7.06,7.06,0,0,1,3.69,3.48l3.21,8c.56,1.39-.2,2.08-1.68,1.54L266.81,93V81.85Z"/><path class="cls-8" d="M266.81,83.2,290.75,92a5.83,5.83,0,0,1,3.05,3.44l2.23,5.12c.55,1.39.32,2-1.16,1.49L266.81,91.76V83.2Z"/><path class="cls-5" d="M266.81,127.22l33.57,10.91a2.19,2.19,0,0,1,1.41,2.75l-2.17,6.67a2.18,2.18,0,0,1-2.76,1.4l-30.05-9.76v-12Z"/><path class="cls-8" d="M266.81,128.4,300,139.27c1.15.37,1.14,1.55.77,2.7l-1.43,4.39c-.37,1.15-1,1.83-2.12,1.45l-30.42-9.95V128.4Z"/><path class="cls-5" d="M258.86,167.23l17.13,19a2.18,2.18,0,0,1-.16,3.09L270.62,194a2.19,2.19,0,0,1-3.09-.16l-16-17.78a48.85,48.85,0,0,0,7.34-8.86Z"/><path class="cls-8" d="M258.25,168.16l16.85,18.89c.8.9.29,1.92-.61,2.73l-3.43,3.08c-.89.81-1.83,1.1-2.64.2l-16-17.82a49.68,49.68,0,0,0,5.85-7.08Z"/><path class="cls-9" d="M170.37,119.39,139.2,136.88c-1.35.75-2.48.46-2.52-.65l-.25-6.48a4.44,4.44,0,0,1,2.37-3.39l31.57-17.72v10.75Z"/><path class="cls-8" d="M170.37,117.59l-31.23,17.78c-1.35.76-1.89,1-1.94-.16l-.33-4.35a3.65,3.65,0,0,1,2-3.19L170.37,110v7.61Z"/><path class="cls-5" d="M170.37,101.16l-19.69-14.3a2.19,2.19,0,0,1-.49-3.06l4.12-5.67a2.19,2.19,0,0,1,3.06-.48l13,9.45v14.06Z"/><path class="cls-8" d="M170.37,99.63l-19-13.74a1.93,1.93,0,0,1-.21-2.86l2.71-3.73a1.92,1.92,0,0,1,2.78-.68l13.7,9.92V99.63Z"/><path class="cls-3" d="M224.89,188.93v20.53a2.19,2.19,0,0,1-2.19,2.19h-7a2.19,2.19,0,0,1-2.18-2.19V189.08a47.33,47.33,0,0,0,5.08.27,46.73,46.73,0,0,0,6.3-.42Zm-9.2-141.85h7a2.19,2.19,0,0,1,2.19,2.19v29H213.51v-29a2.19,2.19,0,0,1,2.18-2.19Z"/><path class="cls-4" d="M224.89,188.93v20.53a2.19,2.19,0,0,1-2.19,2.19h-7a2.19,2.19,0,0,1-2.18-2.19V189.08a47.33,47.33,0,0,0,5.08.27,46.73,46.73,0,0,0,6.3-.42m-9.2-141.85h7a2.19,2.19,0,0,1,2.19,2.19v29H213.51v-29a2.19,2.19,0,0,1,2.18-2.19Z"/><path class="cls-3" d="M223.54,189.09v20.08a2.19,2.19,0,0,1-2.19,2.19h-4.46a2.18,2.18,0,0,1-2.18-2.19v-20c1.28.11,2.57.16,3.88.16a47.69,47.69,0,0,0,4.95-.26ZM216.89,47.52h4.46a2.19,2.19,0,0,1,2.19,2.19V78.28h-8.83V49.71a2.18,2.18,0,0,1,2.18-2.19Z"/><path class="cls-10" d="M223.54,189.09v20.08a2.19,2.19,0,0,1-2.19,2.19h-4.46a2.18,2.18,0,0,1-2.18-2.19v-20c1.28.11,2.57.16,3.88.16a47.69,47.69,0,0,0,4.95-.26M216.89,47.52h4.46a2.19,2.19,0,0,1,2.19,2.19V78.28h-8.83V49.71a2.18,2.18,0,0,1,2.18-2.19Z"/><path class="cls-8" d="M177.68,166.23l-19.87,15c-1,.73-2,.85-2.75-.11l-3.1-4.64c-.72-1-.52-1.7.44-2.42l21.24-16a50.05,50.05,0,0,0,4,8.21Z"/><path class="cls-11" d="M268,78.52v62.72c0,27.52-21.87,49.82-48.86,49.82s-48.85-22.3-48.85-49.82V78.52Z"/><path class="cls-12" d="M247.41,99.43v42.11c0,15.91-12.65,28.81-28.25,28.81s-28.24-12.9-28.24-28.81V99.43Z"/><path class="cls-13" d="M209.58,124.26v17.35a3.32,3.32,0,0,1-3.33,3.32h-9.13a3.32,3.32,0,0,1-3.32-3.32V124.26Zm35,0v17.35a3.32,3.32,0,0,1-3.32,3.32h-9.14a3.32,3.32,0,0,1-3.32-3.32V124.26Zm-17.51,22.06v17.35a3.32,3.32,0,0,1-3.32,3.32H214.6a3.32,3.32,0,0,1-3.32-3.32V146.32Zm0-22.06v17.35a3.32,3.32,0,0,1-3.32,3.32H214.6a3.32,3.32,0,0,1-3.32-3.32V124.26Zm0-22.06v17.35a3.33,3.33,0,0,1-3.32,3.33H214.6a3.33,3.33,0,0,1-3.32-3.33V102.2Z"/><path class="cls-14" d="M199.69,134.62a2,2,0,1,1,1.95,2,1.95,1.95,0,0,1-1.95-2Zm3.34,6a2,2,0,1,1,1.95,2,2,2,0,0,1-1.95-2Zm-6.68,0a2,2,0,1,1,2,2,2,2,0,0,1-2-2Zm6.68-12a2,2,0,1,1,1.95,2,2,2,0,0,1-1.95-2Zm-6.68,0a2,2,0,1,1,2,2,2,2,0,0,1-2-2Zm38.33,6a2,2,0,1,1,2,2,2,2,0,0,1-2-2Zm3.34,6a2,2,0,1,1,2,2,2,2,0,0,1-2-2Zm-6.68,0a2,2,0,1,1,2,2,2,2,0,0,1-2-2Zm6.68-12a2,2,0,1,1,2,2,2,2,0,0,1-2-2Zm-6.68,0a2,2,0,1,1,2,2,2,2,0,0,1-2-2Zm-14.17,28a2,2,0,1,1,2,2,2,2,0,0,1-2-2Zm3.34,6a2,2,0,1,1,2,2,2,2,0,0,1-2-2Zm-6.68,0a2,2,0,1,1,2,2,2,2,0,0,1-2-2Zm6.68-12a2,2,0,1,1,2,2,2,2,0,0,1-2-2Zm-6.68,0a2,2,0,1,1,2,2,2,2,0,0,1-2-2Zm3.34-16.08a2,2,0,1,1,2,2,2,2,0,0,1-2-2Zm3.34,6a2,2,0,1,1,2,2,2,2,0,0,1-2-2Zm-6.68,0a2,2,0,1,1,2,2,2,2,0,0,1-2-2Zm6.68-12a2,2,0,1,1,2,2,2,2,0,0,1-2-2Zm-6.68,0a2,2,0,1,1,2,2,2,2,0,0,1-2-2Zm3.38-16.1a2,2,0,1,1,2,1.95,2,2,0,0,1-2-1.95Zm3.34,6a2,2,0,1,1,2,2,2,2,0,0,1-2-2Zm-6.68,0a2,2,0,1,1,2,2,2,2,0,0,1-2-2Zm6.68-12a2,2,0,1,1,2,2,2,2,0,0,1-2-2Zm-6.68,0a2,2,0,1,1,2,2,2,2,0,0,1-2-2Z"/><path class="cls-3" d="M252.88,171.63l-1.14-1.46-1.05.81-.48-.62,1-.81-1.08-1.39-1,.81-.48-.62,1-.81-1.08-1.39-1,.81-.49-.62,1-.81L247,164.14l-1,.81-.49-.62,1-.81-1.14-1.46-1,.81-.64,1.08,6.84,8.76,1.27-.27,1-.81ZM246,175.84l-6.31-8.08-7.22,2.67,9.2,11.77,4.33-6.36Zm4.18-3.68-5.91-7.56L239.84,168l5.91,7.56,4.38-3.42Zm-64.64-.53,1.14-1.46,1.05.81.48-.62-1-.81,1.08-1.39,1,.81.49-.62-1-.81,1.08-1.39,1,.81.48-.62-1-.81,1.08-1.39,1,.81.49-.62-1-.81,1.14-1.46,1,.81.64,1.08-6.84,8.76-1.27-.27-1-.81Zm6.93,4.21,6.31-8.08,7.22,2.67-9.2,11.77-4.33-6.36Zm-4.18-3.68,5.91-7.56,4.38,3.42-5.91,7.56-4.38-3.42Zm-13.39-47.48h1.85V126h.78v-1.32h1.77V126H180v-1.32h1.77V126h.78v-1.32h1.77V126h.78v-1.32H187V126l-.45,1.17H175.41l-.56-1.17v-1.32Zm.94,8H186l2.35,7.34H173.45l2.34-7.34Zm.33-5.55h9.59v5.55h-9.59v-5.55Zm74.93-2.49h1.85V126h.78v-1.32h1.77V126h.79v-1.32H258V126h.78v-1.32h1.77V126h.78v-1.32h1.85V126l-.45,1.17H251.61l-.56-1.17v-1.32Zm.94,8h10.25l2.35,7.34H249.65l2.34-7.34Zm.33-5.55h9.6v5.55h-9.6v-5.55Zm-1.27-45.94h1.85v1.33h.78V81.23h1.77v1.33h.79V81.23H258v1.33h.78V81.23h1.77v1.33h.78V81.23h1.85v1.33l-.45,1.17H251.61l-.56-1.17V81.23Zm.94,8h10.25l2.35,7.34H249.65L252,89.28Zm.33-5.55h9.6v5.55h-9.6V83.73ZM213,81.23h1.86v1.33h.78V81.23h1.76v1.33h.79V81.23h1.77v1.33h.78V81.23h1.76v1.33h.79V81.23h1.85v1.33l-.45,1.17H213.54L213,82.56V81.23Zm.95,8h10.25l2.34,7.34H211.57l2.35-7.34Zm.33-5.55h9.59v5.55h-9.59V83.73Zm-39.4-2.5h1.85v1.33h.78V81.23h1.77v1.33H180V81.23h1.77v1.33h.78V81.23h1.77v1.33h.78V81.23H187v1.33l-.45,1.17H175.41l-.56-1.17V81.23Zm.94,8H186l2.35,7.34H173.45l2.34-7.34Zm.33-5.55h9.59v5.55h-9.59V83.73Z"/><path class="cls-10" d="M252.88,171.63l-1.14-1.46-1.05.81-.48-.62,1-.81-1.08-1.39-1,.81-.48-.62,1-.81-1.08-1.39-1,.81-.49-.62,1-.81L247,164.14l-1,.81-.49-.62,1-.81-1.14-1.46-1,.81-.64,1.08,6.84,8.76,1.27-.27,1-.81M246,175.84l-6.31-8.08-7.22,2.67,9.2,11.77,4.33-6.36m4.18-3.68-5.91-7.56L239.84,168l5.91,7.56,4.38-3.42m-64.64-.53,1.14-1.46,1.05.81.48-.62-1-.81,1.08-1.39,1,.81.49-.62-1-.81,1.08-1.39,1,.81.48-.62-1-.81,1.08-1.39,1,.81.49-.62-1-.81,1.14-1.46,1,.81.64,1.08-6.84,8.76-1.27-.27-1-.81m6.93,4.21,6.31-8.08,7.22,2.67-9.2,11.77-4.33-6.36m-4.18-3.68,5.91-7.56,4.38,3.42-5.91,7.56-4.38-3.42m-13.39-47.48h1.85V126h.78v-1.32h1.77V126H180v-1.32h1.77V126h.78v-1.32h1.77V126h.78v-1.32H187V126l-.45,1.17H175.41l-.56-1.17v-1.32m.94,8H186l2.35,7.34H173.45l2.34-7.34m.33-5.55h9.59v5.55h-9.59v-5.55m74.93-2.49h1.85V126h.78v-1.32h1.77V126h.79v-1.32H258V126h.78v-1.32h1.77V126h.78v-1.32h1.85V126l-.45,1.17H251.61l-.56-1.17v-1.32m.94,8h10.25l2.35,7.34H249.65l2.34-7.34m.33-5.55h9.6v5.55h-9.6v-5.55m-1.27-45.94h1.85v1.33h.78V81.23h1.77v1.33h.79V81.23H258v1.33h.78V81.23h1.77v1.33h.78V81.23h1.85v1.33l-.45,1.17H251.61l-.56-1.17V81.23m.94,8h10.25l2.35,7.34H249.65L252,89.28m.33-5.55h9.6v5.55h-9.6V83.73M213,81.23h1.86v1.33h.78V81.23h1.76v1.33h.79V81.23h1.77v1.33h.78V81.23h1.76v1.33h.79V81.23h1.85v1.33l-.45,1.17H213.54L213,82.56V81.23m.95,8h10.25l2.34,7.34H211.57l2.35-7.34m.33-5.55h9.59v5.55h-9.59V83.73m-39.4-2.5h1.85v1.33h.78V81.23h1.77v1.33H180V81.23h1.77v1.33h.78V81.23h1.77v1.33h.78V81.23H187v1.33l-.45,1.17H175.41l-.56-1.17V81.23m.94,8H186l2.35,7.34H173.45l2.34-7.34m.33-5.55h9.59v5.55h-9.59V83.73Z"/><path class="cls-3" d="M180.92,90.59a2.43,2.43,0,0,1,2.25,2.57v3.46h-4.51V93.16a2.43,2.43,0,0,1,2.26-2.57Zm2.11-5.9a1.46,1.46,0,0,1,1.35,1.55v2.08h-2.71V86.24A1.46,1.46,0,0,1,183,84.69Zm-4.22,0a1.46,1.46,0,0,1,1.35,1.55v2.08h-2.71V86.24a1.46,1.46,0,0,1,1.36-1.55Zm63,87.91a2.43,2.43,0,0,0-3.42-.19l-2.72,2.13,2.78,3.55,2.72-2.13a2.43,2.43,0,0,0,.64-3.36Zm3.35-5.29a1.46,1.46,0,0,0-2.06-.11l-1.63,1.28,1.66,2.13,1.64-1.28a1.47,1.47,0,0,0,.39-2Zm2.6,3.32a1.46,1.46,0,0,0-2.06-.11L244,171.8l1.66,2.13,1.65-1.28a1.47,1.47,0,0,0,.39-2Zm-51.12,2a2.43,2.43,0,0,1,3.42-.19l2.72,2.13L200,178.09,197.24,176a2.43,2.43,0,0,1-.64-3.36Zm-3.35-5.29a1.45,1.45,0,0,1,2.05-.11l1.65,1.28-1.67,2.13-1.64-1.28a1.47,1.47,0,0,1-.39-2Zm-2.6,3.32a1.46,1.46,0,0,1,2.06-.11l1.64,1.28-1.67,2.13L191,172.65a1.47,1.47,0,0,1-.39-2ZM180.92,134a2.43,2.43,0,0,1,2.25,2.57v3.46h-4.51V136.6a2.43,2.43,0,0,1,2.26-2.57Zm2.11-5.9a1.46,1.46,0,0,1,1.35,1.55v2.08h-2.71v-2.08a1.46,1.46,0,0,1,1.36-1.55Zm-4.22,0a1.46,1.46,0,0,1,1.35,1.55v2.08h-2.71v-2.08a1.46,1.46,0,0,1,1.36-1.55Zm78.31,5.9a2.43,2.43,0,0,1,2.25,2.57v3.46h-4.51V136.6a2.43,2.43,0,0,1,2.26-2.57Zm2.11-5.9a1.46,1.46,0,0,1,1.35,1.55v2.08h-2.71v-2.08a1.46,1.46,0,0,1,1.36-1.55Zm-4.22,0a1.46,1.46,0,0,1,1.35,1.55v2.08h-2.7v-2.08a1.45,1.45,0,0,1,1.35-1.55Zm2.11-37.54a2.43,2.43,0,0,1,2.25,2.57v3.46h-4.51V93.16a2.43,2.43,0,0,1,2.26-2.57Zm2.11-5.9a1.46,1.46,0,0,1,1.35,1.55v2.08h-2.71V86.24a1.46,1.46,0,0,1,1.36-1.55Zm-4.22,0a1.46,1.46,0,0,1,1.35,1.55v2.08h-2.7V86.24A1.45,1.45,0,0,1,255,84.69Zm-36,5.9a2.43,2.43,0,0,1,2.26,2.57v3.46h-4.51V93.16A2.43,2.43,0,0,1,219,90.59Zm2.11-5.9a1.46,1.46,0,0,1,1.36,1.55v2.08H219.8V86.24a1.46,1.46,0,0,1,1.35-1.55Zm-4.22,0a1.46,1.46,0,0,1,1.36,1.55v2.08h-2.71V86.24a1.46,1.46,0,0,1,1.35-1.55Z"/><path class="cls-10" d="M180.92,90.59a2.43,2.43,0,0,1,2.25,2.57v3.46h-4.51V93.16a2.43,2.43,0,0,1,2.26-2.57m2.11-5.9a1.46,1.46,0,0,1,1.35,1.55v2.08h-2.71V86.24A1.46,1.46,0,0,1,183,84.69m-4.22,0a1.46,1.46,0,0,1,1.35,1.55v2.08h-2.71V86.24a1.46,1.46,0,0,1,1.36-1.55m63,87.91a2.43,2.43,0,0,0-3.42-.19l-2.72,2.13,2.78,3.55,2.72-2.13a2.43,2.43,0,0,0,.64-3.36m3.35-5.29a1.46,1.46,0,0,0-2.06-.11l-1.63,1.28,1.66,2.13,1.64-1.28a1.47,1.47,0,0,0,.39-2m2.6,3.32a1.46,1.46,0,0,0-2.06-.11L244,171.8l1.66,2.13,1.65-1.28a1.47,1.47,0,0,0,.39-2m-51.12,2a2.43,2.43,0,0,1,3.42-.19l2.72,2.13L200,178.09,197.24,176a2.43,2.43,0,0,1-.64-3.36m-3.35-5.29a1.45,1.45,0,0,1,2.05-.11l1.65,1.28-1.67,2.13-1.64-1.28a1.47,1.47,0,0,1-.39-2m-2.6,3.32a1.46,1.46,0,0,1,2.06-.11l1.64,1.28-1.67,2.13L191,172.65a1.47,1.47,0,0,1-.39-2M180.92,134a2.43,2.43,0,0,1,2.25,2.57v3.46h-4.51V136.6a2.43,2.43,0,0,1,2.26-2.57m2.11-5.9a1.46,1.46,0,0,1,1.35,1.55v2.08h-2.71v-2.08a1.46,1.46,0,0,1,1.36-1.55m-4.22,0a1.46,1.46,0,0,1,1.35,1.55v2.08h-2.71v-2.08a1.46,1.46,0,0,1,1.36-1.55m78.31,5.9a2.43,2.43,0,0,1,2.25,2.57v3.46h-4.51V136.6a2.43,2.43,0,0,1,2.26-2.57m2.11-5.9a1.46,1.46,0,0,1,1.35,1.55v2.08h-2.71v-2.08a1.46,1.46,0,0,1,1.36-1.55m-4.22,0a1.46,1.46,0,0,1,1.35,1.55v2.08h-2.7v-2.08a1.45,1.45,0,0,1,1.35-1.55m2.11-37.54a2.43,2.43,0,0,1,2.25,2.57v3.46h-4.51V93.16a2.43,2.43,0,0,1,2.26-2.57m2.11-5.9a1.46,1.46,0,0,1,1.35,1.55v2.08h-2.71V86.24a1.46,1.46,0,0,1,1.36-1.55m-4.22,0a1.46,1.46,0,0,1,1.35,1.55v2.08h-2.7V86.24A1.45,1.45,0,0,1,255,84.69m-36,5.9a2.43,2.43,0,0,1,2.26,2.57v3.46h-4.51V93.16A2.43,2.43,0,0,1,219,90.59m2.11-5.9a1.46,1.46,0,0,1,1.36,1.55v2.08H219.8V86.24a1.46,1.46,0,0,1,1.35-1.55m-4.22,0a1.46,1.46,0,0,1,1.36,1.55v2.08h-2.71V86.24a1.46,1.46,0,0,1,1.35-1.55Z"/><path class="cls-15" d="M176.82,40.4s-2,4.67-10.46,7.7a14.34,14.34,0,0,1-9.46-.88l-1.63-1.52a11.94,11.94,0,0,1,.88-10.1C162.32,25.5,168,25.88,168,25.88s1.63,7.2-4.79,14.26c0,0,4.28-2.27,13.61.26Zm-21.55,5.68a71.51,71.51,0,0,0-8.07,7.19m11.6-1.64s-.89,5-8.57,9.85a15.29,15.29,0,0,1-9.46,1.13l-1.89-1.13c-3.28-4.67-1.26-10.1-1.26-10.1C141.4,40.27,147,39.51,147,39.51s3.28,6.57-1.51,14.9c0,0,3.78-3.16,13.36-2.78ZM139,61.86a73.36,73.36,0,0,0-6.43,8.71m11.09-4s.13,5.17-6.3,11.49a14.43,14.43,0,0,1-9,3.15l-2.14-.76c-4.16-3.78-3.4-9.46-3.4-9.46,1.26-11.74,6.55-13.76,6.55-13.76s4.66,5.8,1.76,14.89c0,0,2.9-3.91,12.48-5.55ZM126.53,80.92a60.17,60.17,0,0,0-4.41,9.84m10-6.31s1.26,4.93-3.78,12.5a13.82,13.82,0,0,1-7.94,5l-2.27-.25a12,12,0,0,1-5.42-8.59c-1.26-11.74,3.53-14.77,3.53-14.77s5.67,4.67,4.91,14.14c0,0,2-4.42,11-8.08Zm-13.74,17.68a77.11,77.11,0,0,0-2,10.47m8.19-8.2s2.4,4.54-.88,13a14.77,14.77,0,0,1-6.68,6.69l-2.27.13c-5.42-1.65-7.06-7.07-7.06-7.07-3.78-11.24.13-15.28.13-15.28s6.68,3.28,7.94,12.75c0,0,1-4.79,8.82-10.22Zm-9.45,20.19a64.57,64.57,0,0,0,.25,10.73m6.31-9.84s3.27,3.91,1.89,12.87a15,15,0,0,1-5,8l-2.15.75c-5.67-.5-8.57-5.42-8.57-5.42-6-10.1-3-15-3-15s7,1.76,10.46,10.72c0,0-.13-4.79,6.43-11.86Zm-4.92,21.71a66.42,66.42,0,0,0,2.52,10.48m4-11s4,3.15,4.67,12.11a14.6,14.6,0,0,1-3.28,9l-1.89,1.13c-5.67.76-9.45-3.53-9.45-3.53-8.19-8.46-6.31-13.89-6.31-13.89s7.32.25,12.48,8.21c0,0-1-4.67,3.78-13ZM123.13,169a62.12,62.12,0,0,0,4.79,9.59M129.43,167s4.66,2.14,7.18,10.86a14.14,14.14,0,0,1-1.26,9.46l-1.63,1.52c-5.3,1.89-10-1.39-10-1.39-9.83-6.56-9.08-12.25-9.08-12.25s7.19-1.39,14,5.43c0,0-2.14-4.42.76-13.63Zm4.79,21.84a71.18,71.18,0,0,0,6.68,8.46m-1-11.74s5,1.13,9.33,9a14.66,14.66,0,0,1,.88,9.59l-1.26,1.77c-4.79,3-10.09.88-10.09.88-11-4.29-11.59-10-11.59-10S134,193.9,142,199c0,0-3-3.79-2.14-13.38Zm9.33,20.19a62.92,62.92,0,0,0,8.44,6.82m-3.53-11.24s5,0,11.09,6.82a14.86,14.86,0,0,1,2.9,9.09l-.88,2c-4,4-9.71,3.16-9.71,3.16-11.59-1.9-13.35-7.33-13.35-7.33s5.92-4.29,14.87-1.13c0,0-3.66-3-4.92-12.63Zm13.49,17.8a67,67,0,0,0,9.7,4.8m-5.92-10.23s5-1,12.35,4.3a14.24,14.24,0,0,1,4.66,8.2l-.38,2.27c-3,4.8-8.69,5.05-8.69,5.05-11.72.76-14.62-4.16-14.62-4.16s4.79-5.56,14.24-4.29c0,0-4.28-2.28-7.56-11.37Zm17,14.52a71.8,71.8,0,0,0,10.46,2.53m-7.94-8.71s4.67-2.15,13,1.51a14.3,14.3,0,0,1,6.43,6.94v2.28c-1.89,5.42-7.43,6.81-7.43,6.81-11.22,3.28-15.13-.88-15.13-.88s3.53-6.44,13-7.32c0,0-4.66-1.14-9.83-9.34ZM261.51,40.4s2,4.67,10.46,7.7a14.34,14.34,0,0,0,9.46-.88l1.63-1.52a11.94,11.94,0,0,0-.88-10.1c-6.18-10.1-11.85-9.72-11.85-9.72s-1.63,7.2,4.79,14.26c0,0-4.28-2.27-13.61.26Zm21.55,5.68a71.51,71.51,0,0,1,8.07,7.19m-11.6-1.64s.89,5,8.57,9.85a15,15,0,0,0,9.46,1.13l1.89-1.13c3.28-4.67,1.26-10.1,1.26-10.1-3.78-11.11-9.45-11.87-9.45-11.87s-3.16,6.57,1.51,14.9c0,0-3.66-3.16-13.24-2.78Zm19.79,10.23a73.36,73.36,0,0,1,6.43,8.71m-11.09-4S294.53,71.7,301,78a14.43,14.43,0,0,0,9,3.15l2.14-.76c4.16-3.78,3.4-9.46,3.4-9.46-1.26-11.74-6.55-13.76-6.55-13.76s-4.66,5.8-1.77,14.89c0,0-2.89-3.91-12.47-5.55ZM311.8,80.92a60.17,60.17,0,0,1,4.41,9.84m-9.95-6.31S305,89.38,309.91,97a14.44,14.44,0,0,0,8.06,5l2.28-.25c4.91-2.91,5.42-8.59,5.42-8.59,1.26-11.74-3.53-14.77-3.53-14.77s-5.68,4.67-4.92,14.14c0,0-2-4.42-11-8.08ZM320,102.13a77.11,77.11,0,0,1,2,10.47m-8.2-8.2s-2.38,4.54.89,13a14.77,14.77,0,0,0,6.68,6.69l2.27.13c5.42-1.65,7.05-7.07,7.05-7.07,3.79-11.24-.12-15.28-.12-15.28s-6.68,3.28-7.94,12.75c0,0-1-4.79-8.83-10.22Zm9.46,20.19a64.57,64.57,0,0,1-.25,10.73m-6.31-9.84s-3.27,3.91-1.88,12.87a15,15,0,0,0,5,8l2.15.75c5.67-.5,8.57-5.42,8.57-5.42,6.05-10.1,3-15,3-15s-7.05,1.76-10.45,10.72c0,0,.12-4.79-6.44-11.86Zm4.92,21.71a65.09,65.09,0,0,1-2.52,10.48m-4-11s-4,3.15-4.66,12.11a14.6,14.6,0,0,0,3.28,9l1.89,1.13c5.67.76,9.45-3.53,9.45-3.53,8.2-8.46,6.31-13.89,6.31-13.89s-7.44.25-12.48,8.21c0,0,1-4.67-3.79-13ZM315.2,169a61,61,0,0,1-4.79,9.59M308.9,167s-4.66,2.14-7.18,10.86a14.14,14.14,0,0,0,1.26,9.46l1.63,1.52c5.3,1.89,10-1.39,10-1.39,9.84-6.56,9.08-12.25,9.08-12.25s-7.19-1.39-14,5.43c0,0,2.14-4.42-.76-13.63Zm-4.79,21.84a71.18,71.18,0,0,1-6.68,8.46m1-11.74s-5,1.13-9.33,9a14.66,14.66,0,0,0-.88,9.59l1.26,1.77c4.79,3,10.08.88,10.08.88,11-4.29,11.6-10,11.6-10s-6.8-2.9-14.87,2.15c0,0,3-3.79,2.14-13.38Zm-9.33,20.19a62.92,62.92,0,0,1-8.44,6.82m3.53-11.24s-5,0-11.09,6.82a14.86,14.86,0,0,0-2.9,9.09l.88,2c4,4,9.7,3.16,9.7,3.16,11.6-1.9,13.36-7.33,13.36-7.33s-5.92-4.29-14.87-1.13c0,0,3.66-3,4.92-12.63Zm-13.49,17.8a67,67,0,0,1-9.7,4.8m5.92-10.23s-5-1-12.35,4.3a14.24,14.24,0,0,0-4.66,8.2l.38,2.27c3,4.8,8.69,5.05,8.69,5.05,11.72.76,14.62-4.16,14.62-4.16s-4.79-5.56-14.24-4.29c0,0,4.29-2.28,7.56-11.37Zm-17,14.52a71.8,71.8,0,0,1-10.46,2.53m7.94-8.71s-4.67-2.15-13,1.51A14.3,14.3,0,0,0,228,230.5l-.13,2.28a11.72,11.72,0,0,0,7.57,6.81c11.21,3.28,15.12-.88,15.12-.88s-3.53-6.44-13-7.32c0,0,4.66-1.14,9.83-9.34Zm-27.86,17.79a7.43,7.43,0,0,1-7.31-7.44,7.38,7.38,0,1,1,14.75,0,7.45,7.45,0,0,1-7.44,7.44Z"/><path class="cls-16" d="M333.17,224.42s-2.93.34.84-4.86c0,0,.5-.5-.67-2.84,0,0-1.76-6.62.58-9.47,0,0-1.17-4.27,2.51-5.44,0,0-.75-4.11,6.77-4.44,0,0,4.1-2,7.53-1.59,0,0,7.95-.17,10.45,2.34,0,0,9.7,1.93,10.12,15.5,0,0-.25,6,1.34,9,0,0,1.76,5.19-1,8.46a41.88,41.88,0,0,0-5.78,9.13s.17,1.76-1.58,4.86c0,0-1.51,1.17-.59,2.17,0,0,10-1.17,17.07.17,0,0,4.26.17,8.1,4.61a32.39,32.39,0,0,1,11.3,1.17s2.51-5-2.93-15.49c0,0-6.78-4.28-9.12-7.71,0,0-4-.25-6,.5,0,0-6.77.84,1.42-3.68,0,0-4.51.25-6.77.58,0,0-2.76-.75,6.52-3.85,0,0-4.43-2.09-7.52-2.09,0,0-2.09-1.43,7.19-1.59,0,0-.59-.76-3.93-4.86,0,0-2.68-5.78,1.42-1.93a41.22,41.22,0,0,1,5.35,4.86s9.53,5.78,14.13,13c0,0,1.42,2.93,6.61,9.55,0,0,9.45,10.22,14,23.45,0,0,2.09,7.37-4.52,7.37,0,0-30.94-1.17-37.88-5.27,0,0-14.64,11.81-19.07,26.63l.25,8.46c1.84,6.79,4.85,18.18,5.27,22.53,0,0,17.4,1.68,25.34,17.85,0,0,5.43,23.62-16.64,19.76,0,0-12.05-2.51-15.14-3.94,0,0-3.26,6.62.59,12.49,0,0,5.43,5.36.25,5.78s-.59-.17-.59-.17-6,2.85-8.36.75c0,0-4.6-1.92-3.52-5.44,0,0-.75-10.47-2.08-13.15,0,0-4.1-12.23,3.51-10.14,0,0,1.92-1.51.75-3.26,0,0-8.53-2.93-8.95-7,0,0-5.6-2-14.3-.58,0,0-26.34,10.63-35.37,12.73,0,0-19,4.52-20.75,6.28,0,0-8.94,2.85-12.79,2.09,0,0-10,3.69-11.21,6.37L205.55,367s1.76,6-3.85,6c0,0-13.38-1.34-15.13.92,0,0-6.36,2.35-8.28,0l-6.61,1.18s-5.43-.59.42-4.86c0,0,10.2-7.12,14.47-7.12,0,0,23.08-8.38,25-8.55s7.78-2.93,7.78-2.93,20.07-8.88,33.62-9.88a48.56,48.56,0,0,1,15.72-7.37s4.6-11.06,27.68-16.5c0,0,18.4-8.13,20.74-11.22l2.26-6.2s3.51-3.69,1.59-13.57c0,0-6.36-31.25-8.62-36.36,0,0-17.14-8.45-25-20.94,0,0-1.17-6.36-11.29-8.45,0,0-16-12.15-21.24-22.12,0,0-5.19.92-13.05-2.59,0,0-16-7-3.51-7.29,0,0-6.61-7.79-10.45-9.88,0,0-5.19-5.2,2.67-2.6,0,0,11.29,4.69,14.8,7.29,0,0,7.28,4.94,13.64,10.13a58.45,58.45,0,0,0,16.55,7.29s14,5.53,17.73,13.65c0,0,11.88,7.29,19.15,13.74,0,0,6.11-.92,16.81,9.29,0,0,4.35,1.18,10.46-.92,0,0,1.76-2.59-2.6-2.59,0,0-3.92.08-2.84-4.44a1.43,1.43,0,0,0,.25-1.18s-.5,0-.08-.75c0,0-.92-.59-.84-1.17l.42-1.59a1.8,1.8,0,0,0-.75-1Z"/><path class="cls-16" d="M104.44,217.3a2.11,2.11,0,0,1-.33,1.68,3.64,3.64,0,0,0,.33,1.5,3.77,3.77,0,0,1-3.76,4.28,18,18,0,0,0-4.68.42s-1.17,1.75,1.17,4.35a13.18,13.18,0,0,0,7.52-1.42s4.69-8.46,12.8-7.88c0,0,2.34-1.76,11.87-.33,0,0,11.63-9.88,22.42-11.64,0,0,15.05-12.73,26.67-14.49,0,0,11-7,18-9.3,0,0,14.56-8.71,20.91-9.3,0,0,12.8-4.94,8.78,1.42,0,0-3.51,3.77-7.27,4.95,0,0-3.51,3.68-8.53,8.37,0,0-3.68,5.62-13.55,3.86,0,0-17.73,27-37.72,29.65,0,0-20.9,23.53-31.94,21.77,0,0-5.27,19.85-11,30.33,0,0-4.94,18-2.68,29.31,0,0,2.34,4.94,21.83,12.23,0,0,17.39,4.11,37.46,23.87,0,0,18.24,1.76,24.09,2.35,0,0,14.8,2.84,24.09,11.56,0,0,2.59,3.51,14.8,5.86,0,0,3.76,3.77,22.41,9.55,0,0,13.29,7.87,6.61,10.47,0,0-8.12,2.68-18.24-2.26,0,0-7.27,1.76-11.95-6.12,0,0-2.26-2.34-9-3.52,0,0-14-1.42-19.49.93,0,0-17.14-.93-22.91-9.05,0,0-15.14,1.42-24.09-3.18,0,0-32.53-4.36-40.72-8.21a23.49,23.49,0,0,1-16.48-7.2s-4.68,4.35-13.13,1.42c0,0-2.59,5.53-7.27,6.7,0,0,5.26,4.94,2.67,11.31,0,0-9.87,16.58-9.62,19.51,0,0-4.34,9.3-10.7,4.61,0,0-17.73,1.51-3.26-4.61,0,0,5.27-4.35,5.52-10.8,0,0,2.34-6.37-6-7.54,0,0-10.79-.25-14,.59,0,0-32.28.92-18.31-25,0,0,6.94-18.93,18.56-19.52,0,0,10.79-1.17,15.72-1.17,0,0,4-11.65-6.1-29.4a80.41,80.41,0,0,1-14.8-27.06s-4.94-6.11-5.52-11.3c0,0-12.46,1.42-16.9-6.12,0,0-13.63-12.82-16.8-15.66,0,0-3.77-2.1,0-7.63s5.51-8.71,5.51-8.71,11.29-15.66,29-20.1c0,0,2.09-3.18,9.62-.25,0,0,3.76,0,8.7.25,0,0,6.69,2.1,5.27,12.23a51.14,51.14,0,0,1-5,4.94s-1.42,5.53-5.77,1.18c0,0-8.7-5.2-8.45-8.72,0,0,.34-1.42-3.18.34,0,0-7.52,13.65-9.86,18.26,0,0,4.93-.59,12.21,3.18,0,0,17.39-2,20.32,4.11,0,0,6.35,3.51,10.2-4.36a7.7,7.7,0,0,1-5-6.11s-1.67-5.53,0-7.88c0,0-3.17-2,0-6.36,0,0-2.59-9.89,1.76-11.9,0,0,4.68-5.86,7.61-7.87,0,0,1.67-2.6,8.11-1.17,0,0,4.35-1.76,14.8,1.17,0,0,8.7,2.93,8.7,8.12,0,0,1.42,3.52-1.42,5.87,0,0,2,4.94-.34,8.71,0,0,6.11,7,.92,7.2l-1.25-.25s1-.08.59,1.17c0,0,.83,3.1-.51,3.77Z"/><path class="cls-17" d="M70.49,222.83a7.7,7.7,0,0,1-5-6.11s-1.67-5.53,0-7.88c0,0-3.17-2,0-6.36,0,0-2.59-9.89,1.76-11.9,0,0,3.51-4.94,6.44-7,0,0,2.84-3.77,9.28-2,0,0,4.35-1.76,14.8,1.17,0,0,8.7,2.93,8.7,8.12,0,0,1.42,3.52-1.42,5.87,0,0-3.76-1.51-5.27,0,0,0-1.17,3.43-6.94,4.94,0,0,.25,5.19-5.86,7.79,0,0-1.08,5.86-4.93,1.51,0,0-1.67-2.35-5.77,3.18,0,0-1.17,3.77-5.77,8.71Z"/><path class="cls-18" d="M27.76,219.9s-1.18,2.09-5.52,5.53m6.94-1.76s-.25,2.34.58,3.52m1.17,1.42s0,2.68,5.86,4.1m4-9.63s2.09,0,4.1,5.28m4.68,5.53s4.35,1.17,6,4.94m4.69-11.64s0,3.76,6.35,5.52m-8.36,17.43s0,14.9,5.52,14.32m2.59-3.27s2.93,1.51,3.18,3.27m-12.21,2.85a12.92,12.92,0,0,0,6.11,3.77m-5.77,3.51s4.34,1.18,5.77,3.52m-7.28,6.95s4.68,6.37,3.26,10.81M65,290.59s1.42-6.11,4.94-6.36m3.17-15.75s8.7.33,14.47-8.71M89.89,256s-3.18-8.13-2-12.82m-11-20.6s1.17,8.71-.59,11m.84,2.1s4.35,0,6.44,2m.58-4.36,3.18-.84m-.59,6.62s7-7.54,11.29-6.37m-2-7.53a50,50,0,0,1-4.94-.93m27,17.76s1.18-11.31,6.69-13.9m6.36,2.26s4.35,1.51,10.45-1.76c0,0,9.29-5.19,13.38-6.62m4.94-12s4.1-1.18,6.36-1.76m-51.69,45.39s-.25,12.23-19.4,9.64M78,278.7s5.18-3.77,8.69-2.35m5.52-1.17s3.18-1.76,4.6,0M102.1,279s5.52,3.52,5.52,8.46M87.55,265s1.76-1.5,2.93-.33m15.39-5.78,2-.33m3.85,6.7s3.18-.84,3.18-3.19m-1.76,7.29s2.34.25,3.18-1.51m-1.42,5.53s-.34,3.52.58,4.94m-27.34,0s.33,5.53-.25,7.63a5.15,5.15,0,0,1,1.42,5.19s-1.76.84-1.76,6.11m12.8,6.37s3.51-8.38,5.52-11.06M76.26,214.12s4.1,4.35,6.11,0m2.34,76.22a7.45,7.45,0,0,0-6.44-1.17m-11.63,8.71a6.63,6.63,0,0,1,3.85,5.53m17.06-2.6a2.12,2.12,0,0,1-.25,2.6"/><path class="cls-17" d="M113.39,304.83l7,5.28s-16.9,6.7-18.57,32a15.46,15.46,0,0,1-13.13,1.42S86.13,323.76,62.3,317.4v-1.51s40.64,8.12,51.09-11.06Z"/><path class="cls-18" d="M73.92,311.28s2.34,1.09,3.76,5.78M99.51,308s-2.93,3.86-2.34,6.45M42.89,327.28a4.29,4.29,0,0,1,3.43-2.68s10.79,0,13.38.59m-7.86,14.57S55,331.89,58,328.7m-9.29,12.49A14.2,14.2,0,0,0,41.39,345m20.91-3.76s6.69-8.13,10.2-8.72m-34,25.63s2.26-2.93,3.77-5.27m39.14-2.6S68.15,352,65,349.89c0,0-4.43-3.18-10.79-.58,0,0-2.59,2.68-8.11,1.76M65,349.89a11.44,11.44,0,0,1-.33,7A12.92,12.92,0,0,1,58,359.28m21.24,0a4.46,4.46,0,0,1-1.76,4.35m43.24-25.29s13.38,7,17.48,10.72a6.66,6.66,0,0,0,4.6,1.76M150,351l4.1,3.77s.25,2.35,6,1.76a64.39,64.39,0,0,1,6.44-.33M168,345s3.51,2.94,4.35,5.53m-18.82-18.59s4.94,2.34,6.94,5.27m-38-19.26s8.7,2.09,14,4.69c0,0,9.87,2.35,11.87,6.11m50.27,20.95s7.52.58,8.94,3.76m-24.33,7.29s7.78-3.52,14.21-1.17c0,0,6.36,1.76,10.71.84m12.21.33s4.68,2.93,7.86,3.18c0,0,4.68,5.28,10.12,7.29m27,5.78-3.18-1.42M40,239.67s6.1.58,8.69,3.26"/><path class="cls-17" d="M94.83,216.72a.59.59,0,1,0,.58-.59.57.57,0,0,0-.58.59Z"/><path class="cls-17" d="M98.59,217.05s4.27.67,5.85.25l-5.85-.25Z"/><path class="cls-18" d="M98.59,217.05s4.27.67,5.85.25"/><polygon class="cls-17" points="105.61 212.61 102.94 212.11 105.61 212.61 105.61 212.61"/><path class="cls-18" d="M105.61,212.61l-2.67-.5m-1.09-10s-4.1.59-5.27,2.35m4.69-.59a2.13,2.13,0,0,1-2.93,1.51"/><path class="cls-17" d="M80.36,211.77a.57.57,0,0,0,.58.59.59.59,0,0,0,0-1.17.57.57,0,0,0-.58.58Z"/><path class="cls-18" d="M218.85,181.54s-4.69-2-10.79,2.34M40.55,201.3s-.92-3.1-.33-3.77"/><path class="cls-19" d="M354.41,237.49a10,10,0,0,0-2.09-5.86,20.38,20.38,0,0,1-1.34-3.1c-.75-1.18-.25-1.51-.25-1.51a2,2,0,0,0,1.17-.42c.42-1.17-3.85-4.27-3.85-4.27s-7.19-4.61-7.52-11.81c0,0-.59-1.51-1.76-1.76a4.14,4.14,0,0,0-1.76,1.76s-1.5,5.78-3.43,6.7c-.16.08-.16-.34-.24-.5,0,0-1.76-6.62.58-9.47,0,0-1.17-4.27,2.51-5.44,0,0-.75-4.11,6.77-4.44,0,0,4.1-2,7.53-1.59,0,0,7.95-.17,10.45,2.34,0,0,9.7,1.93,10.12,15.5,0,0-.25,6,1.34,9,0,0,1.76,5.19-1,8.46a41.88,41.88,0,0,0-5.78,9.13s.17,1.76-1.58,4.86c0,0-1.51,1.17-.59,2.17,0,0-1.34,3.69-5.6-1.42,0,0-2.09.67-1.84-2a2.23,2.23,0,0,0-.5-1.34,5.42,5.42,0,0,1-.17-1.76,1.83,1.83,0,0,0-.58-1.51s-.84-.33-.59-1.67Z"/><path class="cls-18" d="M187.15,373.43s2.93-3.43,5.27-.33m36.38-14.24s1.34-2.18,18.23-4.44m5.35-2.93s.84-1.34,3.94-1.76M277,335.57s14.13-1.5,16.47.59m9.12-1.51s9.28-1.76,11.62-4.1m39.31,41.29s1.93,3.27,3.68,3.52m-10.28-24a5.49,5.49,0,0,0,0,3.68m1.92-8.79a37.69,37.69,0,0,1,11.45,1.59s5.77,4.44,9.29,5.78m-15.48-7.37a8,8,0,0,0,2.85,7.2M362.35,331s3.93,1.93,4.86,9.89c0,0-.59,4.6,4.85,10m-7.53-27.31s-4.69.76-8.53.92"/><path class="cls-17" d="M360.85,307.43l1.5,6.62s-2.67.16-4,1.33c0,0-14.72,14.41-18.65,21.78,0,0-7.53-2.17-13.71-.83,0,0-6-26.56-9.45-28.48,0,0,1.92-5.2,2.67-6,0,0,9.87,9.54,18,12.81a204.15,204.15,0,0,0,23.67-7.2Z"/><path class="cls-18" d="M327.15,296s.75,4.27,3.09,6.36m23-8.88-.17-5.27M327.73,286a4.44,4.44,0,0,0,0,3.26m25.18,9.89a12.23,12.23,0,0,1-3.52,7.2"/><path class="cls-17" d="M318,274.09s4.1-.59,6.19.59c0,0,5.27,1.93,9.12-.34a24.1,24.1,0,0,0,4.84-2.18l.76-1.5,4.26-.25s2.18,6,17.06,9.54l2.68,3.86,1.34-2.35s.58-19.6-1.67-23.79l-2.35-1-3.51.59s-9.28,3.51-13.72,11.64h-3.34s-4-9.55-11.54-16.08l-2.59-.59s-6.78,8.88-7.7,18.6l.17,3.26Z"/><path class="cls-20" d="M338.94,268.9s1.34-3.52.42-5.61m4.26,5.36s-.59-3.27.76-5.36"/><path class="cls-18" d="M343.2,243.1s1,3.1,2.77.17m-32.37-6S316.69,249.13,321,253m-24.42-21.35s3.93,5.86,13,9.88m-34.21-32.17s6.78,4.44,13.14,5.87m-50.18-26.05a12.16,12.16,0,0,0,5.68,1.76M388.86,252a8.76,8.76,0,0,0-4.43,2.76m1.92,7.71s9.54,1.17,12.38,0m1.43-9.3a40.65,40.65,0,0,1,7.35,10.47"/><polygon class="cls-17" points="325.56 252.23 332 238.24 332.92 238.07 328.15 252.82 325.56 252.23 325.56 252.23"/><polygon class="cls-17" points="360.26 256.67 363.19 246.78 364.28 246.78 362.61 257.68 360.26 256.67 360.26 256.67"/><path class="cls-18" d="M334.59,228.19s1.67-.42,2.34.34a2.82,2.82,0,0,0,2.17.33m-5.68-4.35s.42.75,2.17.75m8.12-7.62a8.23,8.23,0,0,0-6.36-1.18m4.26,2.43s-.41-.5-2.51-.5"/><path class="cls-17" d="M341,228.61a.43.43,0,1,1,.34-.42.39.39,0,0,1-.34.42Z"/><path class="cls-17" d="M339.69,306.09a.94.94,0,0,0,1-.84,1,1,0,0,0-1-.84.94.94,0,0,0-1,.84.89.89,0,0,0,1,.84Z"/><path class="cls-18" d="M339.19,235a39.34,39.34,0,0,0,4.27.92m-14.31,2.17.93,1.34m36.79,7.79-2,.76M293.19,215l-1.84.34"/><path class="cls-21" d="M179.52,258.51h-2.16a17.68,17.68,0,0,0-2.87-4.95c-1.37-1.74-2.68-2.7-3.91-2.87-.56-.07-1.31-.14-2.24-.2s-1.79-.08-2.58-.08h-6.19V266h4a10,10,0,0,0,2.91-.37,5.21,5.21,0,0,0,2.19-1.36,7.15,7.15,0,0,0,1.36-2.34,11.62,11.62,0,0,0,.8-2.82h2.13v16.73h-2.13a11,11,0,0,0-.87-3.07,9.77,9.77,0,0,0-1.29-2.4,4.94,4.94,0,0,0-2.07-1.33,9.34,9.34,0,0,0-3-.43h-4v13.17a3.67,3.67,0,0,0,.38,1.72,2.76,2.76,0,0,0,1.44,1.16,9.28,9.28,0,0,0,1.7.46c.72.14,1.43.25,2.14.32v2.19H143.8v-2.19l2.16-.23a7.46,7.46,0,0,0,1.87-.38,2.58,2.58,0,0,0,1.4-1.09,3.58,3.58,0,0,0,.4-1.8v-28a3.76,3.76,0,0,0-.35-1.66,2.76,2.76,0,0,0-1.45-1.2,12.3,12.3,0,0,0-2.07-.61c-.86-.19-1.51-.31-2-.37v-2.18h35.72Z"/><path class="cls-21" d="M218.43,257.83a11.44,11.44,0,0,1-1.39,5.79,11,11,0,0,1-3.82,3.93,17.75,17.75,0,0,1-5.76,2.27,34.3,34.3,0,0,1-7.27.7h-3.25V281.7a3.83,3.83,0,0,0,.38,1.75,2.66,2.66,0,0,0,1.44,1.19,11.69,11.69,0,0,0,1.82.48,19.49,19.49,0,0,0,2.13.33v2.19H181.17v-2.19l2.16-.23a7.46,7.46,0,0,0,1.87-.38,2.78,2.78,0,0,0,1.45-1.09A3.86,3.86,0,0,0,187,282v-28a3.83,3.83,0,0,0-.34-1.69A2.59,2.59,0,0,0,185.2,251a10.59,10.59,0,0,0-2.08-.61c-.87-.17-1.52-.29-2-.35v-2.18h21.94q7.69,0,11.51,2.45A8.29,8.29,0,0,1,218.43,257.83Zm-10.93,1.43c0-3-.6-5.2-1.8-6.65s-3.35-2.17-6.43-2.17h-2.33v17.45h1.18q4.59,0,7-2.11T207.5,259.26Z"/><path class="cls-21" d="M241.09,288.7a23.4,23.4,0,0,1-8.18-1.41,19.26,19.26,0,0,1-6.64-4.1,18.83,18.83,0,0,1-4.37-6.52,23.62,23.62,0,0,1,0-17.09,20.37,20.37,0,0,1,4.52-6.82,20,20,0,0,1,6.86-4.38,23.47,23.47,0,0,1,8.58-1.56,21.39,21.39,0,0,1,6,.8,24.8,24.8,0,0,1,4.59,1.81l1.74-1.54h2.44l.25,14.51h-2.46q-2.11-6.64-5.05-9.75a9.5,9.5,0,0,0-7.17-3.11,8.78,8.78,0,0,0-8,4.64q-2.74,4.63-2.75,13a30.44,30.44,0,0,0,.94,8.08,16.79,16.79,0,0,0,2.45,5.39,10,10,0,0,0,3.84,3.13,12.57,12.57,0,0,0,11.89-1.14,19.62,19.62,0,0,0,5.59-6.44l2.41,1.46a24.58,24.58,0,0,1-2.74,4.41,16.87,16.87,0,0,1-3.56,3.35,18.88,18.88,0,0,1-4.89,2.41A20.82,20.82,0,0,1,241.09,288.7Z"/><path class="cls-21" d="M295.86,258.51H293.7a17.68,17.68,0,0,0-2.87-4.95q-2.06-2.61-3.91-2.87c-.56-.07-1.3-.14-2.24-.2s-1.79-.08-2.57-.08h-6.19V266h3.94a10.07,10.07,0,0,0,2.92-.37,5.18,5.18,0,0,0,2.18-1.36,7.15,7.15,0,0,0,1.36-2.34,11.18,11.18,0,0,0,.8-2.82h2.13v16.73h-2.13a10.37,10.37,0,0,0-.87-3.07,9.13,9.13,0,0,0-1.29-2.4,4.94,4.94,0,0,0-2.07-1.33,9.34,9.34,0,0,0-3-.43h-3.94v13.17a3.67,3.67,0,0,0,.37,1.72,2.83,2.83,0,0,0,1.45,1.16,9.14,9.14,0,0,0,1.69.46c.72.14,1.43.25,2.14.32v2.19H260.14v-2.19l2.16-.23a7.57,7.57,0,0,0,1.88-.38,2.62,2.62,0,0,0,1.4-1.09A3.69,3.69,0,0,0,266,282v-28a3.76,3.76,0,0,0-.35-1.66,2.7,2.7,0,0,0-1.44-1.2,12.75,12.75,0,0,0-2.08-.61c-.86-.19-1.51-.31-2-.37v-2.18h35.72Z"/><path class="cls-22" d="M159.05,296.17a5.16,5.16,0,0,1-.63,2.62,4.92,4.92,0,0,1-1.73,1.78,8,8,0,0,1-2.61,1,15.62,15.62,0,0,1-3.29.32h-1.47V307a1.77,1.77,0,0,0,.17.79,1.19,1.19,0,0,0,.65.54,5.4,5.4,0,0,0,.83.22c.38.07.7.13,1,.15v1h-9.75v-1l1-.11a3.25,3.25,0,0,0,.85-.17,1.28,1.28,0,0,0,.65-.49,1.83,1.83,0,0,0,.16-.82V294.4a1.68,1.68,0,0,0-.16-.77,1.17,1.17,0,0,0-.65-.54,5.35,5.35,0,0,0-.95-.27c-.39-.08-.69-.14-.88-.16v-1h9.93a9.75,9.75,0,0,1,5.21,1.11A3.76,3.76,0,0,1,159.05,296.17Zm-5,.65a4.6,4.6,0,0,0-.82-3,3.59,3.59,0,0,0-2.91-1h-1.05v7.91h.53a4.66,4.66,0,0,0,3.17-1A3.74,3.74,0,0,0,154.1,296.82Z"/><path class="cls-22" d="M176.5,293.67a9,9,0,0,1,2.12,2.95,9.44,9.44,0,0,1,.78,3.93,10.63,10.63,0,0,1-.66,3.74,8.67,8.67,0,0,1-1.91,3.06,9.14,9.14,0,0,1-3.07,2.07,11.69,11.69,0,0,1-7.91.1,9.06,9.06,0,0,1-3.08-1.88,8.82,8.82,0,0,1-2.1-2.93,9.37,9.37,0,0,1-.77-3.84,10.31,10.31,0,0,1,.75-4,9.31,9.31,0,0,1,2.08-3.07,9.06,9.06,0,0,1,3.1-1.94,10.78,10.78,0,0,1,3.82-.68,11,11,0,0,1,3.79.66A9.4,9.4,0,0,1,176.5,293.67Zm-3.26,12.88a9.29,9.29,0,0,0,.83-2.61,19.44,19.44,0,0,0,.25-3.3,20.14,20.14,0,0,0-.22-3,10,10,0,0,0-.75-2.63,5,5,0,0,0-1.45-1.85,3.53,3.53,0,0,0-2.25-.7,3.76,3.76,0,0,0-3.48,2.17,12.9,12.9,0,0,0-1.2,6.15,18.87,18.87,0,0,0,.26,3.18,9.84,9.84,0,0,0,.82,2.62,4.69,4.69,0,0,0,1.45,1.75,3.58,3.58,0,0,0,2.15.63,3.67,3.67,0,0,0,2.16-.63A4.48,4.48,0,0,0,173.24,306.55Z"/><path class="cls-22" d="M201.32,309.67h-6.9q-1.8-2.75-3-4.36t-2.95-3.76h-.69V307a1.54,1.54,0,0,0,.17.77,1.28,1.28,0,0,0,.65.53,4.06,4.06,0,0,0,.75.21,6.34,6.34,0,0,0,.89.15v1h-9.61v-1l1-.11a3.26,3.26,0,0,0,.86-.17,1.25,1.25,0,0,0,.65-.51,1.7,1.7,0,0,0,.16-.8V294.4a1.69,1.69,0,0,0-.14-.76,1.2,1.2,0,0,0-.67-.54,5.85,5.85,0,0,0-1-.28l-.87-.16v-1h10.1a10,10,0,0,1,5.14,1.06,3.48,3.48,0,0,1,1.76,3.2,4.27,4.27,0,0,1-1.08,3,7.25,7.25,0,0,1-3.31,1.79l2,2.59c.77,1,1.57,2,2.39,3,.27.33.62.73,1.08,1.21a3.11,3.11,0,0,0,1.19.88,4.94,4.94,0,0,0,.75.15c.3,0,.51.07.64.08Zm-8.64-13.38a3.22,3.22,0,0,0-1-2.63,4.37,4.37,0,0,0-2.87-.84h-1v7.54h1a4,4,0,0,0,2.89-1A4.07,4.07,0,0,0,192.68,296.29Z"/><path class="cls-22" d="M217.58,296.82h-1a10.9,10.9,0,0,0-1.26-2.47c-.58-.88-1.11-1.36-1.6-1.42-.27,0-.61-.07-1-.09s-.74,0-1,0h-.6v14.12a1.85,1.85,0,0,0,.17.8,1.15,1.15,0,0,0,.64.55,5.38,5.38,0,0,0,.91.24c.41.08.76.14,1,.17v1h-10v-1l1-.11a3.28,3.28,0,0,0,.9-.17,1.19,1.19,0,0,0,.66-.54,1.87,1.87,0,0,0,.17-.82V292.8H206c-.29,0-.63,0-1,0s-.73.05-1,.09c-.49.06-1,.54-1.6,1.42a11.4,11.4,0,0,0-1.27,2.47h-1v-5.15h17.44Z"/><path class="cls-22" d="M238.83,292.66a10.47,10.47,0,0,0-1.06.17,3,3,0,0,0-1.16.46,1.81,1.81,0,0,0-.68,1.15,11.49,11.49,0,0,0-.2,2.47v6.7a6.09,6.09,0,0,1-2,4.75,7.65,7.65,0,0,1-5.3,1.8,9.08,9.08,0,0,1-6-1.73,5.93,5.93,0,0,1-2.11-4.85v-9.21a1.64,1.64,0,0,0-.17-.76,1.49,1.49,0,0,0-.65-.57,3.42,3.42,0,0,0-.82-.27l-.78-.14v-1h9.44v1a7.83,7.83,0,0,0-.83.1,7,7,0,0,0-.85.21,1,1,0,0,0-.65.51,1.83,1.83,0,0,0-.16.79v9.09a5.42,5.42,0,0,0,1.18,3.89,4.56,4.56,0,0,0,3.42,1.22,4.5,4.5,0,0,0,3.47-1.35,5.61,5.61,0,0,0,1.25-3.95V297a9.65,9.65,0,0,0-.22-2.42,2.08,2.08,0,0,0-.68-1.16,3,3,0,0,0-1.15-.51,10.89,10.89,0,0,0-1.14-.28v-1h7.8Z"/><path class="cls-22" d="M259.28,302.35l-.7.09a4.82,4.82,0,0,0-.76.2,1,1,0,0,0-.69.55,2,2,0,0,0-.16.8v2.09c0,.42,0,.76,0,1s0,.58,0,1a15.52,15.52,0,0,1-3.75,1.43,17.41,17.41,0,0,1-4.56.67,11.07,11.07,0,0,1-3.67-.59,8.59,8.59,0,0,1-3-1.79,8.38,8.38,0,0,1-2-2.93,10.28,10.28,0,0,1-.74-4A10.51,10.51,0,0,1,240,297a8.75,8.75,0,0,1,2-3.09,8.87,8.87,0,0,1,3.16-2,11.51,11.51,0,0,1,4.11-.7,10.34,10.34,0,0,1,2.85.37,11.92,11.92,0,0,1,2.15.81l.79-.7h1.1l.12,6.57h-1.12a11.69,11.69,0,0,0-2.31-4.39,4.48,4.48,0,0,0-3.4-1.43,4.19,4.19,0,0,0-3.76,2.13,11.12,11.12,0,0,0-1.33,5.87,12.43,12.43,0,0,0,1.31,6.22,4.05,4.05,0,0,0,3.68,2.24,5.52,5.52,0,0,0,2-.33,4.64,4.64,0,0,0,1.36-.78v-3.66a1.58,1.58,0,0,0-.17-.76,1.32,1.32,0,0,0-.66-.54,3.82,3.82,0,0,0-1-.29c-.38-.08-.7-.14-.95-.17v-1h9.35Z"/><path class="cls-22" d="M279.22,309.67h-9.81v-1a11.62,11.62,0,0,0,1.61-.25c.62-.13.93-.29.93-.49a2,2,0,0,0,0-.22,1.48,1.48,0,0,0-.11-.35l-1.53-3.73h-6.22c-.14.35-.3.76-.47,1.22s-.33.88-.45,1.25a6.68,6.68,0,0,0-.29,1,3.39,3.39,0,0,0,0,.45c0,.27.2.5.61.69a6.56,6.56,0,0,0,2.05.41v1H258.1v-1a7.5,7.5,0,0,0,.94-.13,2.41,2.41,0,0,0,.83-.3,3.23,3.23,0,0,0,.89-.75,4.11,4.11,0,0,0,.6-1.05q1.47-3.57,2.95-7.14t3.26-7.89h2.54q2.49,6.1,3.89,9.66t2.4,5.89a3,3,0,0,0,.42.69,2.78,2.78,0,0,0,.72.59,2.8,2.8,0,0,0,.83.3,5.88,5.88,0,0,0,.85.13Zm-9.45-7.28-2.62-6.52-2.57,6.52Z"/><path class="cls-22" d="M295.8,303.9l-.36,5.77H278.86v-1c.3,0,.65-.06,1-.12a4.65,4.65,0,0,0,.79-.16,1.12,1.12,0,0,0,.63-.49,1.66,1.66,0,0,0,.18-.82V294.4a1.69,1.69,0,0,0-.14-.76,1.24,1.24,0,0,0-.67-.54,4.19,4.19,0,0,0-.94-.28l-.89-.16v-1h9.89v1c-.28,0-.59.06-1,.11a5.43,5.43,0,0,0-1,.19,1,1,0,0,0-.66.52,1.8,1.8,0,0,0-.16.79v11.84a5.75,5.75,0,0,0,.11,1.31,1.12,1.12,0,0,0,.44.71,1.89,1.89,0,0,0,.92.32c.4,0,.94.07,1.63.07a16,16,0,0,0,2-.12,2.46,2.46,0,0,0,1.37-.53,8.85,8.85,0,0,0,1.33-1.82,18.78,18.78,0,0,0,1.08-2.15Z"/></svg>